# This file is brought to you by Roblox Corporation
# Generated by Roblox Studio

mtllib R6 Noob.mtl

g R6Noob1

v 0.065 1.935 19 
v 0.065 0.0650001 19 
v 0.935 0.0650001 19 
v 0.935 1.935 19 
v 0.065 2 18.935 
v 0 1.935 18.935 
v 0 0.0650001 18.935 
v 0.065 0 18.935 
v 0.935 0 18.935 
v 1 0.0650001 18.935 
v 1 1.935 18.935 
v 0.935 2 18.935 
v 0.065 2 18.935 
v 0.065 2 18.065 
v 0 1.935 18.065 
v 0 1.935 18.935 
v 0 0.0650001 18.065 
v 0 0.0650001 18.935 
v 0.065 0 18.065 
v 0.065 0 18.935 
v 0.065 0 18.935 
v 0.065 0 18.065 
v 0.935 0 18.065 
v 0.935 0 18.935 
v 0.935 0 18.935 
v 0.935 0 18.065 
v 1 0.0650001 18.065 
v 1 1.935 18.065 
v 0.935 2 18.065 
v 0.935 2 18.935 
v 0.935 2 18.935 
v 0.935 2 18.065 
v 0.065 2 18.065 
v 0.065 2 18.935 
v 0.065 2 18.065 
v 0.065 1.935 18 
v 0.065 0.0650001 18 
v 0.065 0 18.065 
v 0.935 0.0650001 18 
v 0.935 0 18.065 
v 0.935 1.935 18 
v 0.935 2 18.065 

vn 0 0 1 
vn 0 0 1 
vn 0 0 1 
vn 0 0 1 
vn 0 1 0 
vn -1 0 0 
vn -1 0 0 
vn 0 -1 0 
vn 0 -1 0 
vn 1 0 0 
vn 1 0 0 
vn 0 1 0 
vn 0 1 0 
vn 0 1 0 
vn -1 0 0 
vn -1 0 0 
vn -1 0 0 
vn -1 0 0 
vn 0 -1 0 
vn 0 -1 0 
vn 0 -1 0 
vn 0 -1 0 
vn 0 -1 0 
vn 0 -1 0 
vn 0 -1 0 
vn 0 -1 0 
vn 1 0 0 
vn 1 0 0 
vn 0 1 0 
vn 0 1 0 
vn 0 1 0 
vn 0 1 0 
vn 0 1 0 
vn 0 1 0 
vn 0 1 0 
vn 0 0 -1 
vn 0 0 -1 
vn 0 -1 0 
vn 0 0 -1 
vn 0 -1 0 
vn 0 0 -1 
vn 0 1 0 

vt 0.555176 0.871094 
vt 0.464356 0.871094 
vt 0.464356 0.753906 
vt 0.555176 0.753906 
vt 0.558106 0.871094 
vt 0.555176 0.878906 
vt 0.464356 0.878906 
vt 0.461426 0.871094 
vt 0.461426 0.753906 
vt 0.464356 0.746094 
vt 0.555176 0.746094 
vt 0.558106 0.753906 
vt 0.558106 0.378906 
vt 0.558106 0.496094 
vt 0.555176 0.496094 
vt 0.555176 0.378906 
vt 0.464356 0.496094 
vt 0.464356 0.378906 
vt 0.461426 0.496094 
vt 0.461426 0.378906 
vt 0.496582 0.238281 
vt 0.496582 0.355469 
vt 0.452637 0.355469 
vt 0.452637 0.238281 
vt 0.461426 0.746094 
vt 0.461426 0.628906 
vt 0.464356 0.628906 
vt 0.555176 0.628906 
vt 0.558106 0.628906 
vt 0.558106 0.746094 
vt 0.347168 0.355469 
vt 0.347168 0.238281 
vt 0.391113 0.238281 
vt 0.391113 0.355469 
vt 0.558106 0.503906 
vt 0.555176 0.503906 
vt 0.464356 0.503906 
vt 0.461426 0.503906 
vt 0.464356 0.621094 
vt 0.461426 0.621094 
vt 0.555176 0.621094 
vt 0.558106 0.621094 

usemtl R6Noob1Mtl

f 1/1/1 2/2/2 3/3/3 
f 1/1/1 3/3/3 4/4/4 
f 1/1/1 5/5/5 6/6/6 
f 1/1/1 6/6/6 7/7/7 
f 1/1/1 7/7/7 2/2/2 
f 2/2/2 7/7/7 8/8/8 
f 2/2/2 8/8/8 9/9/9 
f 2/2/2 9/9/9 3/3/3 
f 3/3/3 9/9/9 10/10/10 
f 3/3/3 10/10/10 11/11/11 
f 3/3/3 11/11/11 4/4/4 
f 4/4/4 11/11/11 12/12/12 
f 4/4/4 12/12/12 5/5/5 
f 4/4/4 5/5/5 1/1/1 
f 13/13/13 14/14/14 15/15/15 
f 13/13/13 15/15/15 16/16/16 
f 16/16/16 15/15/15 17/17/17 
f 16/16/16 17/17/17 18/18/18 
f 18/18/18 17/17/17 19/19/19 
f 18/18/18 19/19/19 20/20/20 
f 21/21/21 22/22/22 23/23/23 
f 21/21/21 23/23/23 24/24/24 
f 25/25/25 26/26/26 27/27/27 
f 25/25/25 27/27/27 10/10/10 
f 10/10/10 27/27/27 28/28/28 
f 10/10/10 28/28/28 11/11/11 
f 11/11/11 28/28/28 29/29/29 
f 11/11/11 29/29/29 30/30/30 
f 31/31/31 32/32/32 33/33/33 
f 31/31/31 33/33/33 34/34/34 
f 35/35/35 36/36/36 15/15/15 
f 15/15/15 36/36/36 37/37/37 
f 15/15/15 37/37/37 17/17/17 
f 17/17/17 37/37/37 38/38/38 
f 38/38/38 37/37/37 39/39/39 
f 38/38/38 39/39/39 40/40/40 
f 40/40/40 39/39/39 27/27/27 
f 27/27/27 39/39/39 41/41/41 
f 27/27/27 41/41/41 28/28/28 
f 28/28/28 41/41/41 42/42/42 
f 42/42/42 41/41/41 36/36/36 
f 42/42/42 36/36/36 35/35/35 
f 41/41/41 39/39/39 37/37/37 
f 41/41/41 37/37/37 36/36/36 

g R6Noob2

v -0.935 1.935 19 
v -0.935 0.0650001 19 
v -0.065 0.0650001 19 
v -0.065 1.935 19 
v -0.935 2 18.935 
v -1 1.935 18.935 
v -1 0.0650001 18.935 
v -0.935 0 18.935 
v -0.065 0 18.935 
v 0 0.0650001 18.935 
v 0 1.935 18.935 
v -0.065 2 18.935 
v -0.935 2 18.935 
v -0.935 2 18.065 
v -1 1.935 18.065 
v -1 0.0650001 18.065 
v -0.935 0 18.065 
v -0.935 0 18.935 
v -0.935 0 18.935 
v -0.935 0 18.065 
v -0.065 0 18.065 
v -0.065 0 18.935 
v -0.065 0 18.935 
v -0.065 0 18.065 
v 0 0.0650001 18.065 
v 0 0.0650001 18.935 
v 0 1.935 18.065 
v 0 1.935 18.935 
v -0.065 2 18.065 
v -0.065 2 18.935 
v -0.065 2 18.935 
v -0.065 2 18.065 
v -0.935 2 18.065 
v -0.935 2 18.935 
v -0.935 2 18.065 
v -0.935 1.935 18 
v -0.935 0.0650001 18 
v -0.935 0 18.065 
v -0.065 0.0650001 18 
v -0.065 0 18.065 
v -0.065 1.935 18 
v -0.065 2 18.065 

vn 0 0 1 
vn 0 0 1 
vn 0 0 1 
vn 0 0 1 
vn 0 1 0 
vn -1 0 0 
vn -1 0 0 
vn 0 -1 0 
vn 0 -1 0 
vn 1 0 0 
vn 1 0 0 
vn 0 1 0 
vn 0 1 0 
vn 0 1 0 
vn -1 0 0 
vn -1 0 0 
vn 0 -1 0 
vn 0 -1 0 
vn 0 -1 0 
vn 0 -1 0 
vn 0 -1 0 
vn 0 -1 0 
vn 0 -1 0 
vn 0 -1 0 
vn 1 0 0 
vn 1 0 0 
vn 1 0 0 
vn 1 0 0 
vn 0 1 0 
vn 0 1 0 
vn 0 1 0 
vn 0 1 0 
vn 0 1 0 
vn 0 1 0 
vn 0 1 0 
vn 0 0 -1 
vn 0 0 -1 
vn 0 -1 0 
vn 0 0 -1 
vn 0 -1 0 
vn 0 0 -1 
vn 0 1 0 

vt 0.70166 0.621094 
vt 0.61084 0.621094 
vt 0.61084 0.503906 
vt 0.70166 0.503906 
vt 0.70459 0.621094 
vt 0.70166 0.628906 
vt 0.61084 0.628906 
vt 0.60791 0.621094 
vt 0.60791 0.503906 
vt 0.61084 0.496094 
vt 0.70166 0.496094 
vt 0.70459 0.503906 
vt 0.70459 0.628906 
vt 0.70459 0.746094 
vt 0.70166 0.746094 
vt 0.61084 0.746094 
vt 0.60791 0.746094 
vt 0.60791 0.628906 
vt 0.549317 0.238281 
vt 0.549317 0.355469 
vt 0.505371 0.355469 
vt 0.505371 0.238281 
vt 0.60791 0.996094 
vt 0.60791 0.878906 
vt 0.61084 0.878906 
vt 0.61084 0.996094 
vt 0.70166 0.878906 
vt 0.70166 0.996094 
vt 0.70459 0.878906 
vt 0.70459 0.996094 
vt 0.399902 0.355469 
vt 0.399902 0.238281 
vt 0.443848 0.238281 
vt 0.443848 0.355469 
vt 0.70459 0.753906 
vt 0.70166 0.753906 
vt 0.61084 0.753906 
vt 0.60791 0.753906 
vt 0.61084 0.871094 
vt 0.60791 0.871094 
vt 0.70166 0.871094 
vt 0.70459 0.871094 

usemtl R6Noob1Mtl

f 43/43/43 44/44/44 45/45/45 
f 43/43/43 45/45/45 46/46/46 
f 43/43/43 47/47/47 48/48/48 
f 43/43/43 48/48/48 49/49/49 
f 43/43/43 49/49/49 44/44/44 
f 44/44/44 49/49/49 50/50/50 
f 44/44/44 50/50/50 51/51/51 
f 44/44/44 51/51/51 45/45/45 
f 45/45/45 51/51/51 52/52/52 
f 45/45/45 52/52/52 53/53/53 
f 45/45/45 53/53/53 46/46/46 
f 46/46/46 53/53/53 54/54/54 
f 46/46/46 54/54/54 47/47/47 
f 46/46/46 47/47/47 43/43/43 
f 55/55/55 56/56/56 57/57/57 
f 55/55/55 57/57/57 48/48/48 
f 48/48/48 57/57/57 58/58/58 
f 48/48/48 58/58/58 49/49/49 
f 49/49/49 58/58/58 59/59/59 
f 49/49/49 59/59/59 60/60/60 
f 61/61/61 62/62/62 63/63/63 
f 61/61/61 63/63/63 64/64/64 
f 65/65/65 66/66/66 67/67/67 
f 65/65/65 67/67/67 68/68/68 
f 68/68/68 67/67/67 69/69/69 
f 68/68/68 69/69/69 70/70/70 
f 70/70/70 69/69/69 71/71/71 
f 70/70/70 71/71/71 72/72/72 
f 73/73/73 74/74/74 75/75/75 
f 73/73/73 75/75/75 76/76/76 
f 77/77/77 78/78/78 57/57/57 
f 57/57/57 78/78/78 79/79/79 
f 57/57/57 79/79/79 58/58/58 
f 58/58/58 79/79/79 80/80/80 
f 80/80/80 79/79/79 81/81/81 
f 80/80/80 81/81/81 82/82/82 
f 82/82/82 81/81/81 67/67/67 
f 67/67/67 81/81/81 83/83/83 
f 67/67/67 83/83/83 69/69/69 
f 69/69/69 83/83/83 84/84/84 
f 84/84/84 83/83/83 78/78/78 
f 84/84/84 78/78/78 77/77/77 
f 83/83/83 81/81/81 79/79/79 
f 83/83/83 79/79/79 78/78/78 

g R6Noob3

v 1.065 3.935 19 
v 1.065 2.065 19 
v 1.935 2.065 19 
v 1.935 3.935 19 
v 1.065 4 18.935 
v 1 3.935 18.935 
v 1 2.065 18.935 
v 1.065 2 18.935 
v 1.935 2 18.935 
v 2 2.065 18.935 
v 2 3.935 18.935 
v 1.935 4 18.935 
v 1.065 4 18.935 
v 1.065 4 18.065 
v 1 3.935 18.065 
v 1 3.935 18.935 
v 1 2.065 18.065 
v 1 2.065 18.935 
v 1.065 2 18.065 
v 1.065 2 18.935 
v 1.065 2 18.935 
v 1.065 2 18.065 
v 1.935 2 18.065 
v 1.935 2 18.935 
v 1.935 2 18.935 
v 1.935 2 18.065 
v 2 2.065 18.065 
v 2 3.935 18.065 
v 1.935 4 18.065 
v 1.935 4 18.935 
v 1.935 4 18.935 
v 1.935 4 18.065 
v 1.065 4 18.065 
v 1.065 4 18.935 
v 1.065 4 18.065 
v 1.065 3.935 18 
v 1.065 2.065 18 
v 1.065 2 18.065 
v 1.935 2.065 18 
v 1.935 2 18.065 
v 1.935 3.935 18 
v 1.935 4 18.065 

vn 0 0 1 
vn 0 0 1 
vn 0 0 1 
vn 0 0 1 
vn 0 1 0 
vn -1 0 0 
vn -1 0 0 
vn 0 -1 0 
vn 0 -1 0 
vn 1 0 0 
vn 1 0 0 
vn 0 1 0 
vn 0 1 0 
vn 0 1 0 
vn -1 0 0 
vn -1 0 0 
vn -1 0 0 
vn -1 0 0 
vn 0 -1 0 
vn 0 -1 0 
vn 0 -1 0 
vn 0 -1 0 
vn 0 -1 0 
vn 0 -1 0 
vn 0 -1 0 
vn 0 -1 0 
vn 1 0 0 
vn 1 0 0 
vn 0 1 0 
vn 0 1 0 
vn 0 1 0 
vn 0 1 0 
vn 0 1 0 
vn 0 1 0 
vn 0 1 0 
vn 0 0 -1 
vn 0 0 -1 
vn 0 -1 0 
vn 0 0 -1 
vn 0 -1 0 
vn 0 0 -1 
vn 0 1 0 

vt 0.262207 0.871094 
vt 0.171387 0.871094 
vt 0.171387 0.753906 
vt 0.262207 0.753906 
vt 0.265137 0.871094 
vt 0.262207 0.878906 
vt 0.171387 0.878906 
vt 0.168457 0.871094 
vt 0.168457 0.753906 
vt 0.171387 0.746094 
vt 0.262207 0.746094 
vt 0.265137 0.753906 
vt 0.265137 0.378906 
vt 0.265137 0.496094 
vt 0.262207 0.496094 
vt 0.262207 0.378906 
vt 0.171387 0.496094 
vt 0.171387 0.378906 
vt 0.168457 0.496094 
vt 0.168457 0.378906 
vt 0.602051 0.238281 
vt 0.602051 0.355469 
vt 0.558106 0.355469 
vt 0.558106 0.238281 
vt 0.168457 0.746094 
vt 0.168457 0.628906 
vt 0.171387 0.628906 
vt 0.262207 0.628906 
vt 0.265137 0.628906 
vt 0.265137 0.746094 
vt 0.663574 0.355469 
vt 0.663574 0.238281 
vt 0.707519 0.238281 
vt 0.707519 0.355469 
vt 0.265137 0.503906 
vt 0.262207 0.503906 
vt 0.171387 0.503906 
vt 0.168457 0.503906 
vt 0.171387 0.621094 
vt 0.168457 0.621094 
vt 0.262207 0.621094 
vt 0.265137 0.621094 

usemtl R6Noob3Mtl

f 85/85/85 86/86/86 87/87/87 
f 85/85/85 87/87/87 88/88/88 
f 85/85/85 89/89/89 90/90/90 
f 85/85/85 90/90/90 91/91/91 
f 85/85/85 91/91/91 86/86/86 
f 86/86/86 91/91/91 92/92/92 
f 86/86/86 92/92/92 93/93/93 
f 86/86/86 93/93/93 87/87/87 
f 87/87/87 93/93/93 94/94/94 
f 87/87/87 94/94/94 95/95/95 
f 87/87/87 95/95/95 88/88/88 
f 88/88/88 95/95/95 96/96/96 
f 88/88/88 96/96/96 89/89/89 
f 88/88/88 89/89/89 85/85/85 
f 97/97/97 98/98/98 99/99/99 
f 97/97/97 99/99/99 100/100/100 
f 100/100/100 99/99/99 101/101/101 
f 100/100/100 101/101/101 102/102/102 
f 102/102/102 101/101/101 103/103/103 
f 102/102/102 103/103/103 104/104/104 
f 105/105/105 106/106/106 107/107/107 
f 105/105/105 107/107/107 108/108/108 
f 109/109/109 110/110/110 111/111/111 
f 109/109/109 111/111/111 94/94/94 
f 94/94/94 111/111/111 112/112/112 
f 94/94/94 112/112/112 95/95/95 
f 95/95/95 112/112/112 113/113/113 
f 95/95/95 113/113/113 114/114/114 
f 115/115/115 116/116/116 117/117/117 
f 115/115/115 117/117/117 118/118/118 
f 119/119/119 120/120/120 99/99/99 
f 99/99/99 120/120/120 121/121/121 
f 99/99/99 121/121/121 101/101/101 
f 101/101/101 121/121/121 122/122/122 
f 122/122/122 121/121/121 123/123/123 
f 122/122/122 123/123/123 124/124/124 
f 124/124/124 123/123/123 111/111/111 
f 111/111/111 123/123/123 125/125/125 
f 111/111/111 125/125/125 112/112/112 
f 112/112/112 125/125/125 126/126/126 
f 126/126/126 125/125/125 120/120/120 
f 126/126/126 120/120/120 119/119/119 
f 125/125/125 123/123/123 121/121/121 
f 125/125/125 121/121/121 120/120/120 

g R6Noob4

v -1.935 3.935 19 
v -1.935 2.065 19 
v -1.065 2.065 19 
v -1.065 3.935 19 
v -1.935 4 18.935 
v -2 3.935 18.935 
v -2 2.065 18.935 
v -1.935 2 18.935 
v -1.065 2 18.935 
v -1 2.065 18.935 
v -1 3.935 18.935 
v -1.065 4 18.935 
v -1.935 4 18.935 
v -1.935 4 18.065 
v -2 3.935 18.065 
v -2 2.065 18.065 
v -1.935 2 18.065 
v -1.935 2 18.935 
v -1.935 2 18.935 
v -1.935 2 18.065 
v -1.065 2 18.065 
v -1.065 2 18.935 
v -1.065 2 18.935 
v -1.065 2 18.065 
v -1 2.065 18.065 
v -1 2.065 18.935 
v -1 3.935 18.065 
v -1 3.935 18.935 
v -1.065 4 18.065 
v -1.065 4 18.935 
v -1.065 4 18.935 
v -1.065 4 18.065 
v -1.935 4 18.065 
v -1.935 4 18.935 
v -1.935 4 18.065 
v -1.935 3.935 18 
v -1.935 2.065 18 
v -1.935 2 18.065 
v -1.065 2.065 18 
v -1.065 2 18.065 
v -1.065 3.935 18 
v -1.065 4 18.065 

vn 0 0 1 
vn 0 0 1 
vn 0 0 1 
vn 0 0 1 
vn 0 1 0 
vn -1 0 0 
vn -1 0 0 
vn 0 -1 0 
vn 0 -1 0 
vn 1 0 0 
vn 1 0 0 
vn 0 1 0 
vn 0 1 0 
vn 0 1 0 
vn -1 0 0 
vn -1 0 0 
vn 0 -1 0 
vn 0 -1 0 
vn 0 -1 0 
vn 0 -1 0 
vn 0 -1 0 
vn 0 -1 0 
vn 0 -1 0 
vn 0 -1 0 
vn 1 0 0 
vn 1 0 0 
vn 1 0 0 
vn 1 0 0 
vn 0 1 0 
vn 0 1 0 
vn 0 1 0 
vn 0 1 0 
vn 0 1 0 
vn 0 1 0 
vn 0 1 0 
vn 0 0 -1 
vn 0 0 -1 
vn 0 -1 0 
vn 0 0 -1 
vn 0 -1 0 
vn 0 0 -1 
vn 0 1 0 

vt 0.408691 0.621094 
vt 0.317871 0.621094 
vt 0.317871 0.503906 
vt 0.408691 0.503906 
vt 0.411621 0.621094 
vt 0.408691 0.628906 
vt 0.317871 0.628906 
vt 0.314941 0.621094 
vt 0.314941 0.503906 
vt 0.317871 0.496094 
vt 0.408691 0.496094 
vt 0.411621 0.503906 
vt 0.411621 0.628906 
vt 0.411621 0.746094 
vt 0.408691 0.746094 
vt 0.317871 0.746094 
vt 0.314941 0.746094 
vt 0.314941 0.628906 
vt 0.654785 0.238281 
vt 0.654785 0.355469 
vt 0.61084 0.355469 
vt 0.61084 0.238281 
vt 0.314941 0.996094 
vt 0.314941 0.878906 
vt 0.317871 0.878906 
vt 0.317871 0.996094 
vt 0.408691 0.878906 
vt 0.408691 0.996094 
vt 0.411621 0.878906 
vt 0.411621 0.996094 
vt 0.14795 0.210937 
vt 0.14795 0.09375 
vt 0.191894 0.09375 
vt 0.191894 0.210937 
vt 0.411621 0.753906 
vt 0.408691 0.753906 
vt 0.317871 0.753906 
vt 0.314941 0.753906 
vt 0.317871 0.871094 
vt 0.314941 0.871094 
vt 0.408691 0.871094 
vt 0.411621 0.871094 

usemtl R6Noob3Mtl

f 127/127/127 128/128/128 129/129/129 
f 127/127/127 129/129/129 130/130/130 
f 127/127/127 131/131/131 132/132/132 
f 127/127/127 132/132/132 133/133/133 
f 127/127/127 133/133/133 128/128/128 
f 128/128/128 133/133/133 134/134/134 
f 128/128/128 134/134/134 135/135/135 
f 128/128/128 135/135/135 129/129/129 
f 129/129/129 135/135/135 136/136/136 
f 129/129/129 136/136/136 137/137/137 
f 129/129/129 137/137/137 130/130/130 
f 130/130/130 137/137/137 138/138/138 
f 130/130/130 138/138/138 131/131/131 
f 130/130/130 131/131/131 127/127/127 
f 139/139/139 140/140/140 141/141/141 
f 139/139/139 141/141/141 132/132/132 
f 132/132/132 141/141/141 142/142/142 
f 132/132/132 142/142/142 133/133/133 
f 133/133/133 142/142/142 143/143/143 
f 133/133/133 143/143/143 144/144/144 
f 145/145/145 146/146/146 147/147/147 
f 145/145/145 147/147/147 148/148/148 
f 149/149/149 150/150/150 151/151/151 
f 149/149/149 151/151/151 152/152/152 
f 152/152/152 151/151/151 153/153/153 
f 152/152/152 153/153/153 154/154/154 
f 154/154/154 153/153/153 155/155/155 
f 154/154/154 155/155/155 156/156/156 
f 157/157/157 158/158/158 159/159/159 
f 157/157/157 159/159/159 160/160/160 
f 161/161/161 162/162/162 141/141/141 
f 141/141/141 162/162/162 163/163/163 
f 141/141/141 163/163/163 142/142/142 
f 142/142/142 163/163/163 164/164/164 
f 164/164/164 163/163/163 165/165/165 
f 164/164/164 165/165/165 166/166/166 
f 166/166/166 165/165/165 151/151/151 
f 151/151/151 165/165/165 167/167/167 
f 151/151/151 167/167/167 153/153/153 
f 153/153/153 167/167/167 168/168/168 
f 168/168/168 167/167/167 162/162/162 
f 168/168/168 162/162/162 161/161/161 
f 167/167/167 165/165/165 163/163/163 
f 167/167/167 163/163/163 162/162/162 

g R6Noob5

v -0.935 3.935 19 
v -0.935 2.065 19 
v 0.935 2.065 19 
v 0.935 3.935 19 
v -0.935 4 18.935 
v -1 3.935 18.935 
v -1 2.065 18.935 
v -0.935 2 18.935 
v 0.935 2 18.935 
v 1 2.065 18.935 
v 1 3.935 18.935 
v 0.935 4 18.935 
v -0.935 4 18.935 
v -0.935 4 18.065 
v -1 3.935 18.065 
v -1 2.065 18.065 
v -0.935 2 18.065 
v -0.935 2 18.935 
v -0.935 2 18.935 
v -0.935 2 18.065 
v 0.935 2 18.065 
v 0.935 2 18.935 
v 0.935 2 18.935 
v 0.935 2 18.065 
v 1 2.065 18.065 
v 1 2.065 18.935 
v 1 3.935 18.065 
v 1 3.935 18.935 
v 0.935 4 18.065 
v 0.935 4 18.935 
v 0.935 4 18.935 
v 0.935 4 18.065 
v -0.935 4 18.065 
v -0.935 4 18.935 
v -0.935 4 18.065 
v -0.935 3.935 18 
v -0.935 2.065 18 
v -0.935 2 18.065 
v 0.935 2.065 18 
v 0.935 2 18.065 
v 0.935 3.935 18 
v 0.935 4 18.065 

vn 0 0 1 
vn 0 0 1 
vn 0 0 1 
vn 0 0 1 
vn 0 1 0 
vn -1 0 0 
vn -1 0 0 
vn 0 -1 0 
vn 0 -1 0 
vn 1 0 0 
vn 1 0 0 
vn 0 1 0 
vn 0 1 0 
vn 0 1 0 
vn -1 0 0 
vn -1 0 0 
vn 0 -1 0 
vn 0 -1 0 
vn 0 -1 0 
vn 0 -1 0 
vn 0 -1 0 
vn 0 -1 0 
vn 0 -1 0 
vn 0 -1 0 
vn 1 0 0 
vn 1 0 0 
vn 1 0 0 
vn 1 0 0 
vn 0 1 0 
vn 0 1 0 
vn 0 1 0 
vn 0 1 0 
vn 0 1 0 
vn 0 1 0 
vn 0 1 0 
vn 0 0 -1 
vn 0 0 -1 
vn 0 -1 0 
vn 0 0 -1 
vn 0 -1 0 
vn 0 0 -1 
vn 0 1 0 

vt 0.115723 0.496094 
vt 0.0249022 0.496094 
vt 0.0249022 0.253906 
vt 0.115723 0.253906 
vt 0.118652 0.496094 
vt 0.115723 0.503906 
vt 0.0249022 0.503906 
vt 0.0219727 0.496094 
vt 0.0219727 0.253906 
vt 0.0249022 0.246094 
vt 0.115723 0.246094 
vt 0.118652 0.253906 
vt 0.118652 0.503906 
vt 0.118652 0.621094 
vt 0.115723 0.621094 
vt 0.0249022 0.621094 
vt 0.0219727 0.621094 
vt 0.0219727 0.503906 
vt 0.337646 0.240234 
vt 0.337646 0.357422 
vt 0.246826 0.357422 
vt 0.246826 0.240234 
vt 0.0219727 0.996094 
vt 0.0219727 0.878906 
vt 0.0249022 0.878906 
vt 0.0249022 0.996094 
vt 0.115723 0.878906 
vt 0.115723 0.996094 
vt 0.118652 0.878906 
vt 0.118652 0.996094 
vt 0.14795 0.357422 
vt 0.14795 0.240234 
vt 0.238769 0.240234 
vt 0.238769 0.357422 
vt 0.118652 0.628906 
vt 0.115723 0.628906 
vt 0.0249022 0.628906 
vt 0.0219727 0.628906 
vt 0.0249022 0.871094 
vt 0.0219727 0.871094 
vt 0.115723 0.871094 
vt 0.118652 0.871094 

usemtl R6Noob5Mtl

f 169/169/169 170/170/170 171/171/171 
f 169/169/169 171/171/171 172/172/172 
f 169/169/169 173/173/173 174/174/174 
f 169/169/169 174/174/174 175/175/175 
f 169/169/169 175/175/175 170/170/170 
f 170/170/170 175/175/175 176/176/176 
f 170/170/170 176/176/176 177/177/177 
f 170/170/170 177/177/177 171/171/171 
f 171/171/171 177/177/177 178/178/178 
f 171/171/171 178/178/178 179/179/179 
f 171/171/171 179/179/179 172/172/172 
f 172/172/172 179/179/179 180/180/180 
f 172/172/172 180/180/180 173/173/173 
f 172/172/172 173/173/173 169/169/169 
f 181/181/181 182/182/182 183/183/183 
f 181/181/181 183/183/183 174/174/174 
f 174/174/174 183/183/183 184/184/184 
f 174/174/174 184/184/184 175/175/175 
f 175/175/175 184/184/184 185/185/185 
f 175/175/175 185/185/185 186/186/186 
f 187/187/187 188/188/188 189/189/189 
f 187/187/187 189/189/189 190/190/190 
f 191/191/191 192/192/192 193/193/193 
f 191/191/191 193/193/193 194/194/194 
f 194/194/194 193/193/193 195/195/195 
f 194/194/194 195/195/195 196/196/196 
f 196/196/196 195/195/195 197/197/197 
f 196/196/196 197/197/197 198/198/198 
f 199/199/199 200/200/200 201/201/201 
f 199/199/199 201/201/201 202/202/202 
f 203/203/203 204/204/204 183/183/183 
f 183/183/183 204/204/204 205/205/205 
f 183/183/183 205/205/205 184/184/184 
f 184/184/184 205/205/205 206/206/206 
f 206/206/206 205/205/205 207/207/207 
f 206/206/206 207/207/207 208/208/208 
f 208/208/208 207/207/207 193/193/193 
f 193/193/193 207/207/207 209/209/209 
f 193/193/193 209/209/209 195/195/195 
f 195/195/195 209/209/209 210/210/210 
f 210/210/210 209/209/209 204/204/204 
f 210/210/210 204/204/204 203/203/203 
f 209/209/209 207/207/207 205/205/205 
f 209/209/209 205/205/205 204/204/204 

g R6Noob6

v -0.24624 3.8988 18.3276 
v -0.21256 3.8988 18.2874 
v -1.19209e-07 3.8988 18.5 
v -0.18455 3.8988 18.2627 
v -0.27244 3.8988 18.373 
v -0.145989 3.8988 18.2373 
v -0.290359 3.8988 18.4222 
v -0.0950594 3.8988 18.2149 
v -0.299459 3.8988 18.4739 
v -0.0332003 3.8988 18.2012 
v -0.299459 3.8988 18.5262 
v 0.0332003 3.8988 18.2012 
v -0.290359 3.8988 18.5779 
v 0.0950603 3.8988 18.2149 
v -0.27244 3.8988 18.627 
v 0.14599 3.8988 18.2373 
v -0.24624 3.8988 18.6725 
v 0.18455 3.8988 18.2627 
v -0.21256 3.8988 18.7126 
v 0.21256 3.8988 18.2874 
v -0.17242 3.8988 18.7463 
v 0.246241 3.8988 18.3276 
v -0.12704 3.8988 18.7724 
v 0.27244 3.8988 18.373 
v -0.0777998 3.8988 18.7903 
v 0.29036 3.8988 18.4222 
v -0.0262003 3.8988 18.7994 
v 0.29946 3.8988 18.4739 
v 0.0262003 3.8988 18.7994 
v 0.29946 3.8988 18.5262 
v 0.0777998 3.8988 18.7903 
v 0.29036 3.8988 18.5779 
v 0.12704 3.8988 18.7724 
v 0.27244 3.8988 18.627 
v 0.172421 3.8988 18.7463 
v 0.246241 3.8988 18.6725 
v 0.21256 3.8988 18.7126 
v 3.79361e-16 5.1012 18.5 
v 0.29036 5.1012 18.4222 
v 0.27244 5.1012 18.373 
v 0.21256 5.1012 18.2874 
v 0.18455 5.1012 18.2627 
v 0.40148 5.0783 18.3925 
v 0.29946 5.1012 18.4739 
v 0.414061 5.0783 18.4637 
v 0.14599 5.1012 18.2373 
v 0.0950603 5.1012 18.2149 
v 0.0332003 5.1012 18.2012 
v -0.0332003 5.1012 18.2012 
v -0.0950594 5.1012 18.2149 
v -0.145989 5.1012 18.2373 
v -0.18455 5.1012 18.2627 
v -0.21256 5.1012 18.2874 
v 0.29946 5.1012 18.5262 
v 0.414061 5.0783 18.5363 
v 0.51121 5.0132 18.4552 
v 0.29036 5.1012 18.5779 
v 0.51121 5.0132 18.5448 
v 0.57613 4.9156 18.4496 
v 0.40148 5.0783 18.6076 
v 0.27244 5.1012 18.627 
v 0.49568 5.0132 18.6329 
v 0.57613 4.9156 18.5504 
v 0.59892 4.8006 18.4477 
v 0.3767 5.0783 18.6757 
v 0.59892 4.8006 18.5524 
v 0.59892 4.1994 18.4477 
v 0.55862 4.9156 18.6497 
v 0.46509 5.0132 18.7169 
v 0.246241 5.1012 18.6725 
v 0.34047 5.0783 18.7384 
v 0.21256 5.1012 18.7126 
v 0.420361 5.0132 18.7943 
v 0.52414 4.9156 18.7444 
v 0.2939 5.0783 18.7939 
v 0.473741 4.9156 18.8317 
v 0.18455 5.1012 18.7374 
v 0.36286 5.0132 18.8629 
v 0.2384 5.0783 18.8405 
v 0.14599 5.1012 18.7627 
v 0.29434 5.0132 18.9203 
v 0.40894 4.9156 18.909 
v 0.17566 5.0783 18.8768 
v 0.33172 4.9156 18.9738 
v 0.0950603 5.1012 18.7853 
v 0.21687 5.0132 18.9651 
v 0.10758 5.0783 18.9016 
v 0.0332003 5.1012 18.7987 
v 0.13282 5.0132 18.9958 
v 0.244411 4.9156 19.0242 
v 0.0362301 5.0783 18.9141 
v 0.14968 4.9156 19.0587 
v -0.0332003 5.1012 18.7987 
v 0.0447302 5.0132 19.0112 
v -0.0362301 5.0783 18.9141 
v -0.0950594 5.1012 18.7853 
v -0.0447302 5.0132 19.0112 
v 0.0503998 4.9156 19.0761 
v -0.10758 5.0783 18.9016 
v -0.0503998 4.9156 19.0761 
v -0.145989 5.1012 18.7627 
v -0.13282 5.0132 18.9958 
v -0.17566 5.0783 18.8768 
v -0.18455 5.1012 18.7374 
v -0.21687 5.0132 18.9651 
v -0.14968 4.9156 19.0587 
v -0.2384 5.0783 18.8405 
v -0.24441 4.9156 19.0242 
v -0.21256 5.1012 18.7126 
v -0.29434 5.0132 18.9203 
v -0.2939 5.0783 18.7939 
v -0.23728 5.1012 18.6846 
v -0.36286 5.0132 18.8629 
v -0.331719 4.9156 18.9738 
v -0.34048 5.0783 18.7384 
v -0.40894 4.9156 18.909 
v -0.26278 5.1012 18.646 
v -0.42036 5.0132 18.7943 
v -0.376699 5.0783 18.6757 
v -0.28518 5.1012 18.5951 
v -0.46509 5.0132 18.7169 
v -0.47374 4.9156 18.8317 
v -0.40148 5.0783 18.6076 
v -0.52415 4.9156 18.7444 
v -0.29877 5.1012 18.5332 
v -0.49568 5.0132 18.6329 
v -0.41406 5.0783 18.5363 
v -0.29877 5.1012 18.4669 
v -0.511209 5.0132 18.5448 
v -0.558619 4.9156 18.6497 
v -0.41406 5.0783 18.4637 
v -0.28518 5.1012 18.4049 
v -0.26278 5.1012 18.354 
v -0.40148 5.0783 18.3925 
v -0.511209 5.0132 18.4552 
v -0.57613 4.9156 18.5504 
v -0.23728 5.1012 18.3154 
v -0.376699 5.0783 18.3243 
v -0.34048 5.0783 18.2617 
v -0.2939 5.0783 18.2062 
v -0.49568 5.0132 18.3672 
v -0.46509 5.0132 18.2831 
v -0.42036 5.0132 18.2057 
v -0.36286 5.0132 18.1371 
v -0.57613 4.9156 18.4496 
v -0.558619 4.9156 18.3503 
v -0.52415 4.9156 18.2556 
v -0.47374 4.9156 18.1684 
v -0.40894 4.9156 18.091 
v -0.49248 4.8006 18.1552 
v -0.425119 4.8006 18.075 
v -0.54488 4.8006 18.2459 
v -0.580729 4.8006 18.3444 
v -0.59892 4.8006 18.4477 
v -0.49248 4.1994 18.1552 
v -0.425119 4.1994 18.075 
v -0.54488 4.1994 18.2459 
v -0.580729 4.1994 18.3444 
v -0.59892 4.1994 18.4477 
v 0.2939 3.9217 18.7939 
v 0.21256 3.8988 18.7126 
v 0.246241 3.8988 18.6725 
v 0.2384 3.9217 18.8405 
v 0.172421 3.8988 18.7463 
v 0.34047 3.9217 18.7384 
v 0.27244 3.8988 18.627 
v 0.29434 3.9868 18.9203 
v 0.36286 3.9868 18.8629 
v 0.3767 3.9217 18.6757 
v 0.29036 3.8988 18.5779 
v 0.420361 3.9868 18.7943 
v 0.33172 4.0843 18.9738 
v 0.40894 4.0843 18.909 
v 0.40148 3.9217 18.6076 
v 0.29946 3.8988 18.5262 
v 0.46509 3.9868 18.7169 
v 0.473741 4.0843 18.8317 
v 0.414061 3.9217 18.5363 
v 0.29946 3.8988 18.4739 
v 0.49568 3.9868 18.6329 
v 0.52414 4.0843 18.7444 
v 0.414061 3.9217 18.4637 
v 0.29036 3.8988 18.4222 
v 0.51121 3.9868 18.5448 
v 0.55862 4.0843 18.6497 
v 0.40148 3.9217 18.3925 
v 0.27244 3.8988 18.373 
v 0.51121 3.9868 18.4552 
v 0.57613 4.0843 18.5504 
v 0.3767 3.9217 18.3243 
v 0.246241 3.8988 18.3276 
v 0.49568 3.9868 18.3672 
v 0.57613 4.0843 18.4496 
v 0.34047 3.9217 18.2617 
v 0.21256 3.8988 18.2874 
v 0.2939 3.9217 18.2062 
v 0.46509 3.9868 18.2831 
v 0.420361 3.9868 18.2057 
v 0.36286 3.9868 18.1371 
v 0.55862 4.0843 18.3503 
v 0.52414 4.0843 18.2556 
v 0.473741 4.0843 18.1684 
v 0.40894 4.0843 18.091 
v 0.49248 4.1994 18.1552 
v 0.42512 4.1994 18.075 
v 0.54488 4.1994 18.2459 
v 0.58073 4.1994 18.3444 
v 0.49248 4.8006 18.1552 
v 0.42512 4.8006 18.075 
v 0.54488 4.8006 18.2459 
v 0.58073 4.8006 18.3444 
v 0.473741 4.9156 18.1684 
v 0.40894 4.9156 18.091 
v 0.52414 4.9156 18.2556 
v 0.55862 4.9156 18.3503 
v 0.420361 5.0132 18.2057 
v 0.36286 5.0132 18.1371 
v 0.46509 5.0132 18.2831 
v 0.49568 5.0132 18.3672 
v 0.34047 5.0783 18.2617 
v 0.2939 5.0783 18.2062 
v 0.3767 5.0783 18.3243 
v 0.246241 5.1012 18.3276 
v 0.2939 3.9217 18.2062 
v 0.21256 3.8988 18.2874 
v 0.18455 3.8988 18.2627 
v 0.2384 3.9217 18.1595 
v 0.36286 3.9868 18.1371 
v 0.14599 3.8988 18.2373 
v 0.29434 3.9868 18.0797 
v 0.40894 4.0843 18.091 
v 0.17566 3.9217 18.1233 
v 0.0950603 3.8988 18.2149 
v 0.33172 4.0843 18.0262 
v 0.42512 4.1994 18.075 
v 0.21687 3.9868 18.035 
v 0.10758 3.9217 18.0985 
v 0.0332003 3.8988 18.2012 
v 0.34484 4.1994 18.0075 
v 0.42512 4.8006 18.075 
v 0.244411 4.0843 17.9758 
v 0.13282 3.9868 18.0043 
v 0.0362301 3.9217 18.0859 
v -0.0332003 3.8988 18.2012 
v 0.34484 4.8006 18.0075 
v 0.40894 4.9156 18.091 
v 0.25408 4.1994 17.9552 
v 0.14968 4.0843 17.9413 
v 0.0447302 3.9868 17.9888 
v -0.0362301 3.9217 18.0859 
v -0.0950594 3.8988 18.2149 
v -0.10758 3.9217 18.0985 
v -0.145989 3.8988 18.2373 
v -0.0447302 3.9868 17.9888 
v 0.0503998 4.0843 17.9239 
v 0.15561 4.1994 17.9193 
v -0.17566 3.9217 18.1233 
v -0.18455 3.8988 18.2627 
v -0.13282 3.9868 18.0043 
v -0.0503998 4.0843 17.9239 
v 0.0524006 4.1994 17.9011 
v -0.2384 3.9217 18.1595 
v -0.21256 3.8988 18.2874 
v -0.2939 3.9217 18.2062 
v -0.21687 3.9868 18.035 
v -0.29434 3.9868 18.0797 
v -0.36286 3.9868 18.1371 
v -0.14968 4.0843 17.9413 
v -0.24441 4.0843 17.9758 
v -0.331719 4.0843 18.0262 
v -0.40894 4.0843 18.091 
v -0.0523996 4.1994 17.9011 
v -0.15561 4.1994 17.9193 
v -0.25408 4.1994 17.9552 
v -0.34484 4.1994 18.0075 
v -0.425119 4.1994 18.075 
v -0.34484 4.8006 18.0075 
v -0.425119 4.8006 18.075 
v -0.25408 4.8006 17.9552 
v -0.15561 4.8006 17.9193 
v -0.0523996 4.8006 17.9011 
v -0.331719 4.9156 18.0262 
v -0.40894 4.9156 18.091 
v -0.24441 4.9156 17.9758 
v -0.14968 4.9156 17.9413 
v -0.0503998 4.9156 17.9239 
v -0.29434 5.0132 18.0797 
v -0.36286 5.0132 18.1371 
v -0.21687 5.0132 18.035 
v -0.13282 5.0132 18.0043 
v -0.0447302 5.0132 17.9888 
v -0.2384 5.0783 18.1595 
v -0.2939 5.0783 18.2062 
v -0.18455 5.1012 18.2627 
v -0.21256 5.1012 18.2874 
v -0.145989 5.1012 18.2373 
v -0.17566 5.0783 18.1233 
v -0.0950594 5.1012 18.2149 
v -0.10758 5.0783 18.0985 
v -0.0332003 5.1012 18.2012 
v -0.0362301 5.0783 18.0859 
v 0.0332003 5.1012 18.2012 
v 0.0362301 5.0783 18.0859 
v 0.0950603 5.1012 18.2149 
v 0.0447302 5.0132 17.9888 
v 0.10758 5.0783 18.0985 
v 0.14599 5.1012 18.2373 
v 0.0503998 4.9156 17.9239 
v 0.13282 5.0132 18.0043 
v 0.17566 5.0783 18.1233 
v 0.18455 5.1012 18.2627 
v 0.0524006 4.8006 17.9011 
v 0.14968 4.9156 17.9413 
v 0.15561 4.8006 17.9193 
v 0.21687 5.0132 18.035 
v 0.244411 4.9156 17.9758 
v 0.25408 4.8006 17.9552 
v 0.33172 4.9156 18.0262 
v 0.36286 5.0132 18.1371 
v 0.29434 5.0132 18.0797 
v 0.2939 5.0783 18.2062 
v 0.2384 5.0783 18.1595 
v 0.21256 5.1012 18.2874 
v -0.47374 4.0843 18.1684 
v -0.40894 4.0843 18.091 
v -0.52415 4.0843 18.2556 
v -0.558619 4.0843 18.3503 
v -0.57613 4.0843 18.4496 
v -0.42036 3.9868 18.2057 
v -0.36286 3.9868 18.1371 
v -0.46509 3.9868 18.2831 
v -0.49568 3.9868 18.3672 
v -0.511209 3.9868 18.4552 
v -0.34048 3.9217 18.2617 
v -0.2939 3.9217 18.2062 
v -0.24624 3.8988 18.3276 
v -0.21256 3.8988 18.2874 
v -0.27244 3.8988 18.373 
v -0.376699 3.9217 18.3243 
v -0.290359 3.8988 18.4222 
v -0.40148 3.9217 18.3925 
v -0.299459 3.8988 18.4739 
v -0.41406 3.9217 18.4637 
v -0.299459 3.8988 18.5262 
v -0.41406 3.9217 18.5363 
v -0.290359 3.8988 18.5779 
v -0.511209 3.9868 18.5448 
v -0.40148 3.9217 18.6076 
v -0.27244 3.8988 18.627 
v -0.57613 4.0843 18.5504 
v -0.49568 3.9868 18.6329 
v -0.376699 3.9217 18.6757 
v -0.24624 3.8988 18.6725 
v -0.59892 4.1994 18.5524 
v -0.558619 4.0843 18.6497 
v -0.46509 3.9868 18.7169 
v -0.34048 3.9217 18.7384 
v -0.21256 3.8988 18.7126 
v -0.59892 4.8006 18.5524 
v -0.580729 4.1994 18.6557 
v -0.580729 4.8006 18.6557 
v -0.52415 4.0843 18.7444 
v -0.54488 4.1994 18.7542 
v -0.54488 4.8006 18.7542 
v -0.42036 3.9868 18.7943 
v -0.47374 4.0843 18.8317 
v -0.49248 4.1994 18.8448 
v -0.49248 4.8006 18.8448 
v -0.2939 3.9217 18.7939 
v -0.17242 3.8988 18.7463 
v -0.36286 3.9868 18.8629 
v -0.2384 3.9217 18.8405 
v -0.12704 3.8988 18.7724 
v -0.40894 4.0843 18.909 
v -0.29434 3.9868 18.9203 
v -0.17566 3.9217 18.8768 
v -0.0777998 3.8988 18.7903 
v -0.425119 4.1994 18.9251 
v -0.331719 4.0843 18.9738 
v -0.21687 3.9868 18.9651 
v -0.10758 3.9217 18.9016 
v -0.0262003 3.8988 18.7994 
v -0.425119 4.8006 18.9251 
v -0.34484 4.1994 18.9925 
v -0.34484 4.8006 18.9925 
v -0.24441 4.0843 19.0242 
v -0.25408 4.1994 19.0449 
v -0.25408 4.8006 19.0449 
v -0.13282 3.9868 18.9958 
v -0.14968 4.0843 19.0587 
v -0.15561 4.1994 19.0807 
v -0.15561 4.8006 19.0807 
v -0.0362301 3.9217 18.9141 
v 0.0262003 3.8988 18.7994 
v -0.0447302 3.9868 19.0112 
v 0.0362301 3.9217 18.9141 
v 0.0777998 3.8988 18.7903 
v -0.0503998 4.0843 19.0761 
v 0.0447302 3.9868 19.0112 
v 0.10758 3.9217 18.9016 
v 0.12704 3.8988 18.7724 
v -0.0523996 4.1994 19.0989 
v 0.0503998 4.0843 19.0761 
v 0.13282 3.9868 18.9958 
v 0.17566 3.9217 18.8768 
v 0.21687 3.9868 18.9651 
v 0.14968 4.0843 19.0587 
v 0.244411 4.0843 19.0242 
v 0.0524006 4.1994 19.0989 
v 0.15561 4.1994 19.0807 
v 0.25408 4.1994 19.0449 
v 0.34484 4.1994 18.9925 
v -0.0523996 4.8006 19.0989 
v 0.0524006 4.8006 19.0989 
v 0.15561 4.8006 19.0807 
v 0.25408 4.8006 19.0449 
v 0.34484 4.8006 18.9925 
v 0.42512 4.1994 18.9251 
v 0.42512 4.8006 18.9251 
v 0.49248 4.1994 18.8448 
v 0.49248 4.8006 18.8448 
v 0.54488 4.1994 18.7542 
v 0.54488 4.8006 18.7542 
v 0.58073 4.1994 18.6557 
v 0.58073 4.8006 18.6557 
v 0.59892 4.1994 18.5524 

vn 0 -1 0 
vn 0 -1 0 
vn 0 -1 0 
vn 0 -1 0 
vn 0 -1 0 
vn 0 -1 0 
vn 0 -1 0 
vn 0 -1 0 
vn 0 -1 0 
vn 0 -1 0 
vn 0 -1 0 
vn 0 -1 0 
vn 0 -1 0 
vn 0 -1 0 
vn 0 -1 0 
vn 0 -1 0 
vn 0 -1 0 
vn 0 -1 0 
vn 0 -1 0 
vn 0 -1 0 
vn 0 -1 0 
vn 0 -1 0 
vn 0 -1 0 
vn 0 -1 0 
vn 0 -1 0 
vn 0 -1 0 
vn 0 -1 0 
vn 0 -1 0 
vn 0 -1 0 
vn 0 -1 0 
vn 0 -1 0 
vn 0 -1 0 
vn 0 -1 0 
vn 0 -1 0 
vn 0 -1 0 
vn 0 -1 0 
vn 0 -1 0 
vn 0 1 0 
vn 0 1 0 
vn 0 1 0 
vn 0 1 0 
vn 0 1 0 
vn 0.370079 0.92126 -0.102362 
vn 0 1 0 
vn 0.377953 0.92126 -0.0314961 
vn 0 1 0 
vn 0 1 0 
vn 0 1 0 
vn 0 1 0 
vn 0 1 0 
vn 0 1 0 
vn 0 1 0 
vn 0 1 0 
vn 0 1 0 
vn 0.377953 0.92126 0.0314961 
vn 0.700787 0.708661 -0.0629921 
vn 0 1 0 
vn 0.700787 0.708661 0.0629921 
vn 0.92126 0.385827 -0.0787402 
vn 0.370079 0.92126 0.102362 
vn 0 1 0 
vn 0.685039 0.708661 0.181102 
vn 0.92126 0.385827 0.0787402 
vn 1 0 -0.0866142 
vn 0.346457 0.92126 0.165354 
vn 1 0 0.0866142 
vn 1 0 -0.0866142 
vn 0.889764 0.385827 0.23622 
vn 0.637795 0.708661 0.299213 
vn 0 1 0 
vn 0.314961 0.92126 0.220472 
vn 0 1 0 
vn 0.582677 0.708661 0.409449 
vn 0.834646 0.385827 0.393701 
vn 0.267717 0.92126 0.267717 
vn 0.755906 0.385827 0.527559 
vn 0 1 0 
vn 0.503937 0.708661 0.503937 
vn 0.220472 0.92126 0.314961 
vn 0 1 0 
vn 0.409449 0.708661 0.582677 
vn 0.653543 0.385827 0.653543 
vn 0.165354 0.92126 0.346457 
vn 0.527559 0.385827 0.755906 
vn 0 1 0 
vn 0.299213 0.708661 0.637795 
vn 0.102362 0.92126 0.370079 
vn 0 1 0 
vn 0.181102 0.708661 0.685039 
vn 0.393701 0.385827 0.834646 
vn 0.0314961 0.92126 0.377953 
vn 0.23622 0.385827 0.889764 
vn 0 1 0 
vn 0.0629921 0.708661 0.700787 
vn -0.0314961 0.92126 0.377953 
vn 0 1 0 
vn -0.0629921 0.708661 0.700787 
vn 0.0787402 0.385827 0.92126 
vn -0.102362 0.92126 0.370079 
vn -0.0787402 0.385827 0.92126 
vn 0 1 0 
vn -0.181102 0.708661 0.685039 
vn -0.165354 0.92126 0.346457 
vn 0 1 0 
vn -0.299213 0.708661 0.637795 
vn -0.23622 0.385827 0.889764 
vn -0.220472 0.92126 0.314961 
vn -0.393701 0.385827 0.834646 
vn 0 1 0 
vn -0.409449 0.708661 0.582677 
vn -0.267717 0.92126 0.267717 
vn 0 1 0 
vn -0.496063 0.708661 0.503937 
vn -0.527559 0.385827 0.755906 
vn -0.314961 0.92126 0.220472 
vn -0.653543 0.385827 0.653543 
vn 0 1 0 
vn -0.582677 0.708661 0.409449 
vn -0.346457 0.92126 0.165354 
vn 0 1 0 
vn -0.637795 0.708661 0.299213 
vn -0.755906 0.385827 0.527559 
vn -0.370079 0.92126 0.102362 
vn -0.834646 0.385827 0.393701 
vn 0 1 0 
vn -0.685039 0.708661 0.181102 
vn -0.377953 0.92126 0.0314961 
vn 0 1 0 
vn -0.700787 0.708661 0.0629921 
vn -0.889764 0.385827 0.23622 
vn -0.377953 0.92126 -0.0314961 
vn 0 1 0 
vn 0 1 0 
vn -0.370079 0.92126 -0.102362 
vn -0.700787 0.708661 -0.0629921 
vn -0.92126 0.385827 0.0787402 
vn 0 1 0 
vn -0.346457 0.92126 -0.165354 
vn -0.314961 0.92126 -0.220472 
vn -0.267717 0.92126 -0.267717 
vn -0.685039 0.708661 -0.181102 
vn -0.637795 0.708661 -0.299213 
vn -0.582677 0.708661 -0.409449 
vn -0.496063 0.708661 -0.496063 
vn -0.92126 0.385827 -0.0787402 
vn -0.889764 0.385827 -0.23622 
vn -0.834646 0.385827 -0.393701 
vn -0.755906 0.385827 -0.527559 
vn -0.653543 0.385827 -0.653543 
vn -0.818898 0 -0.574803 
vn -0.708661 0 -0.708661 
vn -0.905512 0 -0.425197 
vn -0.968504 0 -0.259843 
vn -1 0 -0.0866142 
vn -0.818898 0 -0.574803 
vn -0.708661 0 -0.708661 
vn -0.905512 0 -0.425197 
vn -0.968504 0 -0.259843 
vn -1 0 -0.0866142 
vn 0.267717 -0.92126 0.267717 
vn 0 -1 0 
vn 0 -1 0 
vn 0.220472 -0.92126 0.314961 
vn 0 -1 0 
vn 0.314961 -0.92126 0.220472 
vn 0 -1 0 
vn 0.409449 -0.708661 0.582677 
vn 0.503937 -0.708661 0.503937 
vn 0.346457 -0.92126 0.165354 
vn 0 -1 0 
vn 0.582677 -0.708661 0.409449 
vn 0.527559 -0.385827 0.755906 
vn 0.653543 -0.385827 0.653543 
vn 0.370079 -0.92126 0.102362 
vn 0 -1 0 
vn 0.637795 -0.708661 0.299213 
vn 0.755906 -0.385827 0.527559 
vn 0.377953 -0.92126 0.0314961 
vn 0 -1 0 
vn 0.685039 -0.708661 0.181102 
vn 0.834646 -0.385827 0.393701 
vn 0.377953 -0.92126 -0.0314961 
vn 0 -1 0 
vn 0.700787 -0.708661 0.0629921 
vn 0.889764 -0.385827 0.23622 
vn 0.370079 -0.92126 -0.102362 
vn 0 -1 0 
vn 0.700787 -0.708661 -0.0629921 
vn 0.92126 -0.385827 0.0787402 
vn 0.346457 -0.92126 -0.165354 
vn 0 -1 0 
vn 0.685039 -0.708661 -0.181102 
vn 0.92126 -0.385827 -0.0787402 
vn 0.314961 -0.92126 -0.220472 
vn 0 -1 0 
vn 0.267717 -0.92126 -0.267717 
vn 0.637795 -0.708661 -0.299213 
vn 0.582677 -0.708661 -0.409449 
vn 0.503937 -0.708661 -0.496063 
vn 0.889764 -0.385827 -0.23622 
vn 0.834646 -0.385827 -0.393701 
vn 0.755906 -0.385827 -0.527559 
vn 0.653543 -0.385827 -0.653543 
vn 0.818898 0 -0.574803 
vn 0.708661 0 -0.708661 
vn 0.905512 0 -0.425197 
vn 0.968504 0 -0.259843 
vn 0.818898 0 -0.574803 
vn 0.708661 0 -0.708661 
vn 0.905512 0 -0.425197 
vn 0.968504 0 -0.259843 
vn 0.755906 0.385827 -0.527559 
vn 0.653543 0.385827 -0.653543 
vn 0.834646 0.385827 -0.393701 
vn 0.889764 0.385827 -0.23622 
vn 0.582677 0.708661 -0.409449 
vn 0.503937 0.708661 -0.496063 
vn 0.637795 0.708661 -0.299213 
vn 0.685039 0.708661 -0.181102 
vn 0.314961 0.92126 -0.220472 
vn 0.267717 0.92126 -0.267717 
vn 0.346457 0.92126 -0.165354 
vn 0 1 0 
vn 0.267717 -0.92126 -0.267717 
vn 0 -1 0 
vn 0 -1 0 
vn 0.220472 -0.92126 -0.314961 
vn 0.503937 -0.708661 -0.496063 
vn 0 -1 0 
vn 0.409449 -0.708661 -0.582677 
vn 0.653543 -0.385827 -0.653543 
vn 0.165354 -0.92126 -0.346457 
vn 0 -1 0 
vn 0.527559 -0.385827 -0.755906 
vn 0.708661 0 -0.708661 
vn 0.299213 -0.708661 -0.637795 
vn 0.102362 -0.92126 -0.370079 
vn 0 -1 0 
vn 0.574803 0 -0.818898 
vn 0.708661 0 -0.708661 
vn 0.393701 -0.385827 -0.834646 
vn 0.181102 -0.708661 -0.685039 
vn 0.0314961 -0.92126 -0.377953 
vn 0 -1 0 
vn 0.574803 0 -0.818898 
vn 0.653543 0.385827 -0.653543 
vn 0.425197 0 -0.905512 
vn 0.23622 -0.385827 -0.889764 
vn 0.0629921 -0.708661 -0.700787 
vn -0.0314961 -0.92126 -0.377953 
vn 0 -1 0 
vn -0.102362 -0.92126 -0.370079 
vn 0 -1 0 
vn -0.0629921 -0.708661 -0.700787 
vn 0.0787402 -0.385827 -0.92126 
vn 0.259843 0 -0.968504 
vn -0.165354 -0.92126 -0.346457 
vn 0 -1 0 
vn -0.181102 -0.708661 -0.685039 
vn -0.0787402 -0.385827 -0.92126 
vn 0.0866142 0 -1 
vn -0.220472 -0.92126 -0.314961 
vn 0 -1 0 
vn -0.267717 -0.92126 -0.267717 
vn -0.299213 -0.708661 -0.637795 
vn -0.409449 -0.708661 -0.582677 
vn -0.496063 -0.708661 -0.496063 
vn -0.23622 -0.385827 -0.889764 
vn -0.393701 -0.385827 -0.834646 
vn -0.527559 -0.385827 -0.755906 
vn -0.653543 -0.385827 -0.653543 
vn -0.0866142 0 -1 
vn -0.259843 0 -0.968504 
vn -0.425197 0 -0.905512 
vn -0.574803 0 -0.818898 
vn -0.708661 0 -0.708661 
vn -0.574803 0 -0.818898 
vn -0.708661 0 -0.708661 
vn -0.425197 0 -0.905512 
vn -0.259843 0 -0.968504 
vn -0.0866142 0 -1 
vn -0.527559 0.385827 -0.755906 
vn -0.653543 0.385827 -0.653543 
vn -0.393701 0.385827 -0.834646 
vn -0.23622 0.385827 -0.889764 
vn -0.0787402 0.385827 -0.92126 
vn -0.409449 0.708661 -0.582677 
vn -0.496063 0.708661 -0.496063 
vn -0.299213 0.708661 -0.637795 
vn -0.181102 0.708661 -0.685039 
vn -0.0629921 0.708661 -0.700787 
vn -0.220472 0.92126 -0.314961 
vn -0.267717 0.92126 -0.267717 
vn 0 1 0 
vn 0 1 0 
vn 0 1 0 
vn -0.165354 0.92126 -0.346457 
vn 0 1 0 
vn -0.102362 0.92126 -0.370079 
vn 0 1 0 
vn -0.0314961 0.92126 -0.377953 
vn 0 1 0 
vn 0.0314961 0.92126 -0.377953 
vn 0 1 0 
vn 0.0629921 0.708661 -0.700787 
vn 0.102362 0.92126 -0.370079 
vn 0 1 0 
vn 0.0787402 0.385827 -0.92126 
vn 0.181102 0.708661 -0.685039 
vn 0.165354 0.92126 -0.346457 
vn 0 1 0 
vn 0.0866142 0 -1 
vn 0.23622 0.385827 -0.889764 
vn 0.259843 0 -0.968504 
vn 0.299213 0.708661 -0.637795 
vn 0.393701 0.385827 -0.834646 
vn 0.425197 0 -0.905512 
vn 0.527559 0.385827 -0.755906 
vn 0.503937 0.708661 -0.496063 
vn 0.409449 0.708661 -0.582677 
vn 0.267717 0.92126 -0.267717 
vn 0.220472 0.92126 -0.314961 
vn 0 1 0 
vn -0.755906 -0.385827 -0.527559 
vn -0.653543 -0.385827 -0.653543 
vn -0.834646 -0.385827 -0.393701 
vn -0.889764 -0.385827 -0.23622 
vn -0.92126 -0.385827 -0.0787402 
vn -0.582677 -0.708661 -0.409449 
vn -0.496063 -0.708661 -0.496063 
vn -0.637795 -0.708661 -0.299213 
vn -0.685039 -0.708661 -0.181102 
vn -0.700787 -0.708661 -0.0629921 
vn -0.314961 -0.92126 -0.220472 
vn -0.267717 -0.92126 -0.267717 
vn 0 -1 0 
vn 0 -1 0 
vn 0 -1 0 
vn -0.346457 -0.92126 -0.165354 
vn 0 -1 0 
vn -0.370079 -0.92126 -0.102362 
vn 0 -1 0 
vn -0.377953 -0.92126 -0.0314961 
vn 0 -1 0 
vn -0.377953 -0.92126 0.0314961 
vn 0 -1 0 
vn -0.700787 -0.708661 0.0629921 
vn -0.370079 -0.92126 0.102362 
vn 0 -1 0 
vn -0.92126 -0.385827 0.0787402 
vn -0.685039 -0.708661 0.181102 
vn -0.346457 -0.92126 0.165354 
vn 0 -1 0 
vn -1 0 0.0866142 
vn -0.889764 -0.385827 0.23622 
vn -0.637795 -0.708661 0.299213 
vn -0.314961 -0.92126 0.220472 
vn 0 -1 0 
vn -1 0 0.0866142 
vn -0.968504 0 0.259843 
vn -0.968504 0 0.259843 
vn -0.834646 -0.385827 0.393701 
vn -0.905512 0 0.425197 
vn -0.905512 0 0.425197 
vn -0.582677 -0.708661 0.409449 
vn -0.755906 -0.385827 0.527559 
vn -0.818898 0 0.574803 
vn -0.818898 0 0.574803 
vn -0.267717 -0.92126 0.267717 
vn 0 -1 0 
vn -0.496063 -0.708661 0.503937 
vn -0.220472 -0.92126 0.314961 
vn 0 -1 0 
vn -0.653543 -0.385827 0.653543 
vn -0.409449 -0.708661 0.582677 
vn -0.165354 -0.92126 0.346457 
vn 0 -1 0 
vn -0.708661 0 0.708661 
vn -0.527559 -0.385827 0.755906 
vn -0.299213 -0.708661 0.637795 
vn -0.102362 -0.92126 0.370079 
vn 0 -1 0 
vn -0.708661 0 0.708661 
vn -0.574803 0 0.818898 
vn -0.574803 0 0.818898 
vn -0.393701 -0.385827 0.834646 
vn -0.425197 0 0.905512 
vn -0.425197 0 0.905512 
vn -0.181102 -0.708661 0.685039 
vn -0.23622 -0.385827 0.889764 
vn -0.259843 0 0.968504 
vn -0.259843 0 0.968504 
vn -0.0314961 -0.92126 0.377953 
vn 0 -1 0 
vn -0.0629921 -0.708661 0.700787 
vn 0.0314961 -0.92126 0.377953 
vn 0 -1 0 
vn -0.0787402 -0.385827 0.92126 
vn 0.0629921 -0.708661 0.700787 
vn 0.102362 -0.92126 0.370079 
vn 0 -1 0 
vn -0.0866142 0 1 
vn 0.0787402 -0.385827 0.92126 
vn 0.181102 -0.708661 0.685039 
vn 0.165354 -0.92126 0.346457 
vn 0.299213 -0.708661 0.637795 
vn 0.23622 -0.385827 0.889764 
vn 0.393701 -0.385827 0.834646 
vn 0.0866142 0 1 
vn 0.259843 0 0.968504 
vn 0.425197 0 0.905512 
vn 0.574803 0 0.818898 
vn -0.0866142 0 1 
vn 0.0866142 0 1 
vn 0.259843 0 0.968504 
vn 0.425197 0 0.905512 
vn 0.574803 0 0.818898 
vn 0.708661 0 0.708661 
vn 0.708661 0 0.708661 
vn 0.818898 0 0.574803 
vn 0.818898 0 0.574803 
vn 0.905512 0 0.425197 
vn 0.905512 0 0.425197 
vn 0.968504 0 0.259843 
vn 0.968504 0 0.259843 
vn 1 0 0.0866142 

vt 0.897702 0.911538 
vt 0.897702 0.911538 
vt 0.897702 0.911538 
vt 0.897702 0.911538 
vt 0.897702 0.911538 
vt 0.897702 0.911538 
vt 0.897702 0.911538 
vt 0.897702 0.911538 
vt 0.897702 0.911538 
vt 0.897702 0.911538 
vt 0.897702 0.911538 
vt 0.897702 0.911538 
vt 0.897702 0.911538 
vt 0.897702 0.911538 
vt 0.897702 0.911538 
vt 0.897702 0.911538 
vt 0.897702 0.911538 
vt 0.897702 0.911538 
vt 0.897702 0.911538 
vt 0.897702 0.911538 
vt 0.897702 0.911538 
vt 0.897702 0.911538 
vt 0.897702 0.911538 
vt 0.897702 0.911538 
vt 0.897702 0.911538 
vt 0.897702 0.911538 
vt 0.897702 0.911538 
vt 0.897702 0.911538 
vt 0.897702 0.911538 
vt 0.897702 0.911538 
vt 0.897702 0.911538 
vt 0.897702 0.911538 
vt 0.897702 0.911538 
vt 0.897702 0.911538 
vt 0.897702 0.911538 
vt 0.897702 0.911538 
vt 0.897702 0.911538 
vt 0.897702 0.911538 
vt 0.897702 0.911538 
vt 0.897702 0.911538 
vt 0.897702 0.911538 
vt 0.897702 0.911538 
vt 0.897702 0.911538 
vt 0.897702 0.911538 
vt 0.897702 0.911538 
vt 0.897702 0.911538 
vt 0.897702 0.911538 
vt 0.897702 0.911538 
vt 0.897702 0.911538 
vt 0.897702 0.911538 
vt 0.897702 0.911538 
vt 0.897702 0.911538 
vt 0.897702 0.911538 
vt 0.897702 0.911538 
vt 0.897702 0.911538 
vt 0.897702 0.911538 
vt 0.897702 0.911538 
vt 0.897702 0.911538 
vt 0.897702 0.911538 
vt 0.897702 0.911538 
vt 0.897702 0.911538 
vt 0.897702 0.911538 
vt 0.897702 0.911538 
vt 0.897702 0.911538 
vt 0.897702 0.911538 
vt 0.897702 0.911538 
vt 0.897702 0.911538 
vt 0.897702 0.911538 
vt 0.897702 0.911538 
vt 0.897702 0.911538 
vt 0.897702 0.911538 
vt 0.897702 0.911538 
vt 0.897702 0.911538 
vt 0.897702 0.911538 
vt 0.897702 0.911538 
vt 0.897702 0.911538 
vt 0.897702 0.911538 
vt 0.897702 0.911538 
vt 0.897702 0.911538 
vt 0.897702 0.911538 
vt 0.897702 0.911538 
vt 0.897702 0.911538 
vt 0.897702 0.911538 
vt 0.897702 0.911538 
vt 0.897702 0.911538 
vt 0.897702 0.911538 
vt 0.897702 0.911538 
vt 0.897702 0.911538 
vt 0.897702 0.911538 
vt 0.897702 0.911538 
vt 0.897702 0.911538 
vt 0.897702 0.911538 
vt 0.897702 0.911538 
vt 0.897702 0.911538 
vt 0.897702 0.911538 
vt 0.897702 0.911538 
vt 0.897702 0.911538 
vt 0.897702 0.911538 
vt 0.897702 0.911538 
vt 0.897702 0.911538 
vt 0.897702 0.911538 
vt 0.897702 0.911538 
vt 0.897702 0.911538 
vt 0.897702 0.911538 
vt 0.897702 0.911538 
vt 0.897702 0.911538 
vt 0.897702 0.911538 
vt 0.897702 0.911538 
vt 0.897702 0.911538 
vt 0.897702 0.911538 
vt 0.897702 0.911538 
vt 0.897702 0.911538 
vt 0.897702 0.911538 
vt 0.897702 0.911538 
vt 0.897702 0.911538 
vt 0.897702 0.911538 
vt 0.897702 0.911538 
vt 0.897702 0.911538 
vt 0.897702 0.911538 
vt 0.897702 0.911538 
vt 0.897702 0.911538 
vt 0.897702 0.911538 
vt 0.897702 0.911538 
vt 0.897702 0.911538 
vt 0.897702 0.911538 
vt 0.897702 0.911538 
vt 0.897702 0.911538 
vt 0.897702 0.911538 
vt 0.897702 0.911538 
vt 0.897702 0.911538 
vt 0.897702 0.911538 
vt 0.897702 0.911538 
vt 0.897702 0.911538 
vt 0.897702 0.911538 
vt 0.897702 0.911538 
vt 0.897702 0.911538 
vt 0.897702 0.911538 
vt 0.897702 0.911538 
vt 0.897702 0.911538 
vt 0.897702 0.911538 
vt 0.897702 0.911538 
vt 0.897702 0.911538 
vt 0.897702 0.911538 
vt 0.897702 0.911538 
vt 0.897702 0.911538 
vt 0.897702 0.911538 
vt 0.897702 0.911538 
vt 0.897702 0.911538 
vt 0.897702 0.911538 
vt 0.897702 0.911538 
vt 0.897702 0.911538 
vt 0.897702 0.911538 
vt 0.897702 0.911538 
vt 0.897702 0.911538 
vt 0.897702 0.911538 
vt 0.897702 0.911538 
vt 0.897702 0.911538 
vt 0.897702 0.911538 
vt 0.897702 0.911538 
vt 0.897702 0.911538 
vt 0.897702 0.911538 
vt 0.897702 0.911538 
vt 0.897702 0.911538 
vt 0.897702 0.911538 
vt 0.897702 0.911538 
vt 0.897702 0.911538 
vt 0.897702 0.911538 
vt 0.897702 0.911538 
vt 0.897702 0.911538 
vt 0.897702 0.911538 
vt 0.897702 0.911538 
vt 0.897702 0.911538 
vt 0.897702 0.911538 
vt 0.897702 0.911538 
vt 0.897702 0.911538 
vt 0.897702 0.911538 
vt 0.897702 0.911538 
vt 0.897702 0.911538 
vt 0.897702 0.911538 
vt 0.897702 0.911538 
vt 0.897702 0.911538 
vt 0.897702 0.911538 
vt 0.897702 0.911538 
vt 0.897702 0.911538 
vt 0.897702 0.911538 
vt 0.897702 0.911538 
vt 0.897702 0.911538 
vt 0.897702 0.911538 
vt 0.897702 0.911538 
vt 0.897702 0.911538 
vt 0.897702 0.911538 
vt 0.897702 0.911538 
vt 0.897702 0.911538 
vt 0.897702 0.911538 
vt 0.897702 0.911538 
vt 0.897702 0.911538 
vt 0.897702 0.911538 
vt 0.897702 0.911538 
vt 0.897702 0.911538 
vt 0.897702 0.911538 
vt 0.897702 0.911538 
vt 0.897702 0.911538 
vt 0.897702 0.911538 
vt 0.897702 0.911538 
vt 0.897702 0.911538 
vt 0.897702 0.911538 
vt 0.897702 0.911538 
vt 0.897702 0.911538 
vt 0.897702 0.911538 
vt 0.897702 0.911538 
vt 0.897702 0.911538 
vt 0.897702 0.911538 
vt 0.897702 0.911538 
vt 0.897702 0.911538 
vt 0.897702 0.911538 
vt 0.897702 0.911538 
vt 0.897702 0.911538 
vt 0.897702 0.911538 
vt 0.897702 0.911538 
vt 0.897702 0.911538 
vt 0.897702 0.911538 
vt 0.897702 0.911538 
vt 0.897702 0.911538 
vt 0.913604 0.769787 
vt 0.920218 0.765625 
vt 0.923481 0.765625 
vt 0.918116 0.769787 
vt 0.907997 0.781643 
vt 0.927171 0.765625 
vt 0.913569 0.781643 
vt 0.904251 0.799385 
vt 0.923218 0.769787 
vt 0.931174 0.765625 
vt 0.91053 0.799385 
vt 0.902936 0.820312 
vt 0.919867 0.781643 
vt 0.928753 0.769787 
vt 0.93537 0.765625 
vt 0.909463 0.820312 
vt 0.902936 0.929688 
vt 0.917628 0.799385 
vt 0.926701 0.781643 
vt 0.934555 0.769787 
vt 0.93963 0.765625 
vt 0.909463 0.929688 
vt 0.904251 0.950615 
vt 0.916842 0.820312 
vt 0.92533 0.799385 
vt 0.933863 0.781643 
vt 0.940445 0.769787 
vt 0.943826 0.765625 
vt 0.946247 0.769787 
vt 0.947829 0.765625 
vt 0.941137 0.781643 
vt 0.933402 0.799385 
vt 0.924848 0.820312 
vt 0.951782 0.769787 
vt 0.951519 0.765625 
vt 0.948299 0.781643 
vt 0.941598 0.799385 
vt 0.93324 0.820312 
vt 0.956884 0.769787 
vt 0.954782 0.765625 
vt 0.961396 0.769787 
vt 0.955133 0.781643 
vt 0.961431 0.781643 
vt 0.967003 0.781643 
vt 0.94967 0.799385 
vt 0.957372 0.799385 
vt 0.96447 0.799385 
vt 0.970749 0.799385 
vt 0.94176 0.820312 
vt 0.950152 0.820312 
vt 0.958158 0.820312 
vt 0.965537 0.820312 
vt 0.972064 0.820312 
vt 0.965537 0.929688 
vt 0.972064 0.929688 
vt 0.958158 0.929688 
vt 0.950152 0.929688 
vt 0.94176 0.929688 
vt 0.96447 0.950615 
vt 0.970749 0.950615 
vt 0.957372 0.950615 
vt 0.94967 0.950615 
vt 0.941598 0.950615 
vt 0.961431 0.968357 
vt 0.967003 0.968357 
vt 0.955133 0.968357 
vt 0.948299 0.968357 
vt 0.941137 0.968357 
vt 0.956884 0.980212 
vt 0.961396 0.980212 
vt 0.951519 0.984375 
vt 0.954782 0.984375 
vt 0.947829 0.984375 
vt 0.951782 0.980212 
vt 0.943826 0.984375 
vt 0.946247 0.980212 
vt 0.93963 0.984375 
vt 0.940445 0.980212 
vt 0.93537 0.984375 
vt 0.934555 0.980212 
vt 0.931174 0.984375 
vt 0.933863 0.968357 
vt 0.928753 0.980212 
vt 0.927171 0.984375 
vt 0.933402 0.950615 
vt 0.926701 0.968357 
vt 0.923218 0.980212 
vt 0.923481 0.984375 
vt 0.93324 0.929688 
vt 0.92533 0.950615 
vt 0.924848 0.929688 
vt 0.919867 0.968357 
vt 0.917628 0.950615 
vt 0.916842 0.929688 
vt 0.91053 0.950615 
vt 0.907997 0.968357 
vt 0.913569 0.968357 
vt 0.913604 0.980212 
vt 0.918116 0.980212 
vt 0.920218 0.984375 
vt 0.897702 0.911538 
vt 0.897702 0.911538 
vt 0.897702 0.911538 
vt 0.897702 0.911538 
vt 0.897702 0.911538 
vt 0.897702 0.911538 
vt 0.897702 0.911538 
vt 0.897702 0.911538 
vt 0.897702 0.911538 
vt 0.897702 0.911538 
vt 0.897702 0.911538 
vt 0.897702 0.911538 
vt 0.897702 0.911538 
vt 0.897702 0.911538 
vt 0.897702 0.911538 
vt 0.897702 0.911538 
vt 0.897702 0.911538 
vt 0.897702 0.911538 
vt 0.897702 0.911538 
vt 0.897702 0.911538 
vt 0.897702 0.911538 
vt 0.897702 0.911538 
vt 0.897702 0.911538 
vt 0.897702 0.911538 
vt 0.897702 0.911538 
vt 0.897702 0.911538 
vt 0.897702 0.911538 
vt 0.897702 0.911538 
vt 0.897702 0.911538 
vt 0.897702 0.911538 
vt 0.897702 0.911538 
vt 0.897702 0.911538 
vt 0.897702 0.911538 
vt 0.897702 0.911538 
vt 0.897702 0.911538 
vt 0.897702 0.911538 
vt 0.897702 0.911538 
vt 0.897702 0.911538 
vt 0.897702 0.911538 
vt 0.897702 0.911538 
vt 0.897702 0.911538 
vt 0.897702 0.911538 
vt 0.897702 0.911538 
vt 0.897702 0.911538 
vt 0.897702 0.911538 
vt 0.897702 0.911538 
vt 0.897702 0.911538 
vt 0.897702 0.911538 
vt 0.897702 0.911538 
vt 0.897702 0.911538 
vt 0.897702 0.911538 
vt 0.897702 0.911538 
vt 0.897702 0.911538 
vt 0.897702 0.911538 
vt 0.897702 0.911538 
vt 0.897702 0.911538 
vt 0.897702 0.911538 
vt 0.897702 0.911538 
vt 0.897702 0.911538 
vt 0.897702 0.911538 
vt 0.897702 0.911538 
vt 0.897702 0.911538 
vt 0.897702 0.911538 
vt 0.897702 0.911538 
vt 0.897702 0.911538 
vt 0.897702 0.911538 
vt 0.897702 0.911538 
vt 0.897702 0.911538 
vt 0.897702 0.911538 
vt 0.897702 0.911538 
vt 0.897702 0.911538 
vt 0.897702 0.911538 
vt 0.897702 0.911538 
vt 0.897702 0.911538 
vt 0.897702 0.911538 
vt 0.897702 0.911538 
vt 0.897702 0.911538 
vt 0.897702 0.911538 
vt 0.897702 0.911538 
vt 0.897702 0.911538 
vt 0.897702 0.911538 
vt 0.897702 0.911538 
vt 0.897702 0.911538 
vt 0.897702 0.911538 
vt 0.897702 0.911538 
vt 0.897702 0.911538 
vt 0.897702 0.911538 
vt 0.897702 0.911538 
vt 0.897702 0.911538 
vt 0.897702 0.911538 
vt 0.897702 0.911538 
vt 0.897702 0.911538 
vt 0.897702 0.911538 
vt 0.897702 0.911538 
vt 0.897702 0.911538 
vt 0.897702 0.911538 
vt 0.897702 0.911538 
vt 0.897702 0.911538 
vt 0.897702 0.911538 
vt 0.897702 0.911538 
vt 0.897702 0.911538 
vt 0.897702 0.911538 
vt 0.897702 0.911538 

usemtl R6Noob3Mtl

f 211/211/211 212/212/212 213/213/213 
f 213/213/213 212/212/212 214/214/214 
f 215/215/215 211/211/211 213/213/213 
f 213/213/213 214/214/214 216/216/216 
f 217/217/217 215/215/215 213/213/213 
f 213/213/213 216/216/216 218/218/218 
f 219/219/219 217/217/217 213/213/213 
f 213/213/213 218/218/218 220/220/220 
f 221/221/221 219/219/219 213/213/213 
f 213/213/213 220/220/220 222/222/222 
f 223/223/223 221/221/221 213/213/213 
f 213/213/213 222/222/222 224/224/224 
f 225/225/225 223/223/223 213/213/213 
f 213/213/213 224/224/224 226/226/226 
f 227/227/227 225/225/225 213/213/213 
f 213/213/213 226/226/226 228/228/228 
f 229/229/229 227/227/227 213/213/213 
f 213/213/213 228/228/228 230/230/230 
f 213/213/213 231/231/231 229/229/229 
f 230/230/230 232/232/232 213/213/213 
f 213/213/213 233/233/233 231/231/231 
f 232/232/232 234/234/234 213/213/213 
f 213/213/213 235/235/235 233/233/233 
f 234/234/234 236/236/236 213/213/213 
f 213/213/213 237/237/237 235/235/235 
f 236/236/236 238/238/238 213/213/213 
f 213/213/213 239/239/239 237/237/237 
f 238/238/238 240/240/240 213/213/213 
f 213/213/213 241/241/241 239/239/239 
f 240/240/240 242/242/242 213/213/213 
f 213/213/213 243/243/243 241/241/241 
f 242/242/242 244/244/244 213/213/213 
f 213/213/213 245/245/245 243/243/243 
f 244/244/244 246/246/246 213/213/213 
f 245/245/245 213/213/213 247/247/247 
f 247/247/247 213/213/213 246/246/246 
f 248/248/248 249/249/249 250/250/250 
f 248/248/248 251/251/251 252/252/252 
f 253/253/253 249/249/249 254/254/254 
f 254/254/254 255/255/255 253/253/253 
f 248/248/248 254/254/254 249/249/249 
f 248/248/248 252/252/252 256/256/256 
f 248/248/248 256/256/256 257/257/257 
f 248/248/248 257/257/257 258/258/258 
f 248/248/248 258/258/258 259/259/259 
f 248/248/248 259/259/259 260/260/260 
f 248/248/248 260/260/260 261/261/261 
f 248/248/248 261/261/261 262/262/262 
f 248/248/248 262/262/262 263/263/263 
f 255/255/255 254/254/254 264/264/264 
f 248/248/248 264/264/264 254/254/254 
f 264/264/264 265/265/265 255/255/255 
f 266/266/266 255/255/255 265/265/265 
f 265/265/265 264/264/264 267/267/267 
f 248/248/248 267/267/267 264/264/264 
f 265/265/265 268/268/268 266/266/266 
f 269/269/269 266/266/266 268/268/268 
f 267/267/267 270/270/270 265/265/265 
f 268/268/268 265/265/265 270/270/270 
f 270/270/270 267/267/267 271/271/271 
f 248/248/248 271/271/271 267/267/267 
f 270/270/270 272/272/272 268/268/268 
f 268/268/268 273/273/273 269/269/269 
f 273/273/273 268/268/268 272/272/272 
f 274/274/274 269/269/269 273/273/273 
f 272/272/272 270/270/270 275/275/275 
f 271/271/271 275/275/275 270/270/270 
f 273/273/273 276/276/276 274/274/274 
f 277/277/277 274/274/274 276/276/276 
f 272/272/272 278/278/278 273/273/273 
f 276/276/276 273/273/273 278/278/278 
f 275/275/275 279/279/279 272/272/272 
f 278/278/278 272/272/272 279/279/279 
f 275/275/275 271/271/271 280/280/280 
f 248/248/248 280/280/280 271/271/271 
f 279/279/279 275/275/275 281/281/281 
f 280/280/280 281/281/281 275/275/275 
f 281/281/281 280/280/280 282/282/282 
f 248/248/248 282/282/282 280/280/280 
f 281/281/281 283/283/283 279/279/279 
f 279/279/279 284/284/284 278/278/278 
f 284/284/284 279/279/279 283/283/283 
f 283/283/283 281/281/281 285/285/285 
f 282/282/282 285/285/285 281/281/281 
f 283/283/283 286/286/286 284/284/284 
f 285/285/285 282/282/282 287/287/287 
f 248/248/248 287/287/287 282/282/282 
f 285/285/285 288/288/288 283/283/283 
f 286/286/286 283/283/283 288/288/288 
f 287/287/287 289/289/289 285/285/285 
f 288/288/288 285/285/285 289/289/289 
f 289/289/289 287/287/287 290/290/290 
f 248/248/248 290/290/290 287/287/287 
f 289/289/289 291/291/291 288/288/288 
f 288/288/288 292/292/292 286/286/286 
f 292/292/292 288/288/288 291/291/291 
f 291/291/291 289/289/289 293/293/293 
f 290/290/290 293/293/293 289/289/289 
f 291/291/291 294/294/294 292/292/292 
f 293/293/293 290/290/290 295/295/295 
f 248/248/248 295/295/295 290/290/290 
f 293/293/293 296/296/296 291/291/291 
f 294/294/294 291/291/291 296/296/296 
f 295/295/295 297/297/297 293/293/293 
f 296/296/296 293/293/293 297/297/297 
f 297/297/297 295/295/295 298/298/298 
f 248/248/248 298/298/298 295/295/295 
f 297/297/297 299/299/299 296/296/296 
f 296/296/296 300/300/300 294/294/294 
f 300/300/300 296/296/296 299/299/299 
f 299/299/299 297/297/297 301/301/301 
f 298/298/298 301/301/301 297/297/297 
f 299/299/299 302/302/302 300/300/300 
f 301/301/301 298/298/298 303/303/303 
f 248/248/248 303/303/303 298/298/298 
f 301/301/301 304/304/304 299/299/299 
f 302/302/302 299/299/299 304/304/304 
f 303/303/303 305/305/305 301/301/301 
f 304/304/304 301/301/301 305/305/305 
f 305/305/305 303/303/303 306/306/306 
f 248/248/248 306/306/306 303/303/303 
f 305/305/305 307/307/307 304/304/304 
f 304/304/304 308/308/308 302/302/302 
f 308/308/308 304/304/304 307/307/307 
f 307/307/307 305/305/305 309/309/309 
f 306/306/306 309/309/309 305/305/305 
f 307/307/307 310/310/310 308/308/308 
f 309/309/309 306/306/306 311/311/311 
f 248/248/248 311/311/311 306/306/306 
f 309/309/309 312/312/312 307/307/307 
f 310/310/310 307/307/307 312/312/312 
f 311/311/311 313/313/313 309/309/309 
f 312/312/312 309/309/309 313/313/313 
f 313/313/313 311/311/311 314/314/314 
f 248/248/248 314/314/314 311/311/311 
f 313/313/313 315/315/315 312/312/312 
f 312/312/312 316/316/316 310/310/310 
f 316/316/316 312/312/312 315/315/315 
f 315/315/315 313/313/313 317/317/317 
f 314/314/314 317/317/317 313/313/313 
f 315/315/315 318/318/318 316/316/316 
f 317/317/317 314/314/314 319/319/319 
f 248/248/248 319/319/319 314/314/314 
f 317/317/317 320/320/320 315/315/315 
f 318/318/318 315/315/315 320/320/320 
f 319/319/319 321/321/321 317/317/317 
f 320/320/320 317/317/317 321/321/321 
f 321/321/321 319/319/319 322/322/322 
f 248/248/248 322/322/322 319/319/319 
f 321/321/321 323/323/323 320/320/320 
f 320/320/320 324/324/324 318/318/318 
f 324/324/324 320/320/320 323/323/323 
f 323/323/323 321/321/321 325/325/325 
f 322/322/322 325/325/325 321/321/321 
f 323/323/323 326/326/326 324/324/324 
f 325/325/325 322/322/322 327/327/327 
f 248/248/248 327/327/327 322/322/322 
f 325/325/325 328/328/328 323/323/323 
f 326/326/326 323/323/323 328/328/328 
f 327/327/327 329/329/329 325/325/325 
f 328/328/328 325/325/325 329/329/329 
f 329/329/329 327/327/327 330/330/330 
f 248/248/248 330/330/330 327/327/327 
f 329/329/329 331/331/331 328/328/328 
f 328/328/328 332/332/332 326/326/326 
f 332/332/332 328/328/328 331/331/331 
f 331/331/331 329/329/329 333/333/333 
f 330/330/330 333/333/333 329/329/329 
f 331/331/331 334/334/334 332/332/332 
f 333/333/333 330/330/330 335/335/335 
f 248/248/248 335/335/335 330/330/330 
f 333/333/333 336/336/336 331/331/331 
f 334/334/334 331/331/331 336/336/336 
f 335/335/335 337/337/337 333/333/333 
f 336/336/336 333/333/333 337/337/337 
f 337/337/337 335/335/335 338/338/338 
f 248/248/248 338/338/338 335/335/335 
f 337/337/337 339/339/339 336/336/336 
f 336/336/336 340/340/340 334/334/334 
f 340/340/340 336/336/336 339/339/339 
f 339/339/339 337/337/337 341/341/341 
f 338/338/338 341/341/341 337/337/337 
f 248/248/248 342/342/342 338/338/338 
f 341/341/341 338/338/338 342/342/342 
f 248/248/248 343/343/343 342/342/342 
f 342/342/342 344/344/344 341/341/341 
f 344/344/344 342/342/342 343/343/343 
f 341/341/341 345/345/345 339/339/339 
f 345/345/345 341/341/341 344/344/344 
f 339/339/339 346/346/346 340/340/340 
f 346/346/346 339/339/339 345/345/345 
f 248/248/248 347/347/347 343/343/343 
f 248/248/248 263/263/263 347/347/347 
f 343/343/343 348/348/348 344/344/344 
f 348/348/348 343/343/343 347/347/347 
f 349/349/349 347/347/347 263/263/263 
f 347/347/347 349/349/349 348/348/348 
f 263/263/263 350/350/350 349/349/349 
f 351/351/351 344/344/344 348/348/348 
f 344/344/344 351/351/351 345/345/345 
f 352/352/352 348/348/348 349/349/349 
f 348/348/348 352/352/352 351/351/351 
f 353/353/353 349/349/349 350/350/350 
f 349/349/349 353/353/353 352/352/352 
f 350/350/350 354/354/354 353/353/353 
f 355/355/355 345/345/345 351/351/351 
f 345/345/345 355/355/355 346/346/346 
f 356/356/356 351/351/351 352/352/352 
f 351/351/351 356/356/356 355/355/355 
f 357/357/357 352/352/352 353/353/353 
f 352/352/352 357/357/357 356/356/356 
f 358/358/358 353/353/353 354/354/354 
f 353/353/353 358/358/358 357/357/357 
f 354/354/354 359/359/359 358/358/358 
f 360/360/360 358/358/358 359/359/359 
f 359/359/359 361/361/361 360/360/360 
f 362/362/362 357/357/357 358/358/358 
f 358/358/358 360/360/360 362/362/362 
f 363/363/363 356/356/356 357/357/357 
f 357/357/357 362/362/362 363/363/363 
f 356/356/356 363/363/363 364/364/364 
f 364/364/364 355/355/355 356/356/356 
f 365/365/365 360/360/360 361/361/361 
f 361/361/361 366/366/366 365/365/365 
f 367/367/367 362/362/362 360/360/360 
f 360/360/360 365/365/365 367/367/367 
f 368/368/368 363/363/363 362/362/362 
f 362/362/362 367/367/367 368/368/368 
f 369/369/369 364/364/364 363/363/363 
f 363/363/363 368/368/368 369/369/369 
f 370/370/370 371/371/371 372/372/372 
f 371/371/371 370/370/370 373/373/373 
f 373/373/373 374/374/374 371/371/371 
f 372/372/372 375/375/375 370/370/370 
f 375/375/375 372/372/372 376/376/376 
f 377/377/377 373/373/373 370/370/370 
f 378/378/378 370/370/370 375/375/375 
f 370/370/370 378/378/378 377/377/377 
f 376/376/376 379/379/379 375/375/375 
f 379/379/379 376/376/376 380/380/380 
f 375/375/375 381/381/381 378/378/378 
f 381/381/381 375/375/375 379/379/379 
f 382/382/382 377/377/377 378/378/378 
f 383/383/383 378/378/378 381/381/381 
f 378/378/378 383/383/383 382/382/382 
f 380/380/380 384/384/384 379/379/379 
f 384/384/384 380/380/380 385/385/385 
f 379/379/379 386/386/386 381/381/381 
f 386/386/386 379/379/379 384/384/384 
f 381/381/381 387/387/387 383/383/383 
f 387/387/387 381/381/381 386/386/386 
f 385/385/385 388/388/388 384/384/384 
f 388/388/388 385/385/385 389/389/389 
f 384/384/384 390/390/390 386/386/386 
f 390/390/390 384/384/384 388/388/388 
f 386/386/386 391/391/391 387/387/387 
f 391/391/391 386/386/386 390/390/390 
f 389/389/389 392/392/392 388/388/388 
f 392/392/392 389/389/389 393/393/393 
f 388/388/388 394/394/394 390/390/390 
f 394/394/394 388/388/388 392/392/392 
f 390/390/390 395/395/395 391/391/391 
f 395/395/395 390/390/390 394/394/394 
f 393/393/393 396/396/396 392/392/392 
f 396/396/396 393/393/393 397/397/397 
f 392/392/392 398/398/398 394/394/394 
f 398/398/398 392/392/392 396/396/396 
f 394/394/394 399/399/399 395/395/395 
f 399/399/399 394/394/394 398/398/398 
f 397/397/397 400/400/400 396/396/396 
f 400/400/400 397/397/397 401/401/401 
f 396/396/396 402/402/402 398/398/398 
f 402/402/402 396/396/396 400/400/400 
f 398/398/398 403/403/403 399/399/399 
f 403/403/403 398/398/398 402/402/402 
f 401/401/401 404/404/404 400/400/400 
f 404/404/404 401/401/401 405/405/405 
f 405/405/405 406/406/406 404/404/404 
f 407/407/407 400/400/400 404/404/404 
f 400/400/400 407/407/407 402/402/402 
f 408/408/408 404/404/404 406/406/406 
f 404/404/404 408/408/408 407/407/407 
f 406/406/406 409/409/409 408/408/408 
f 410/410/410 402/402/402 407/407/407 
f 402/402/402 410/410/410 403/403/403 
f 411/411/411 407/407/407 408/408/408 
f 407/407/407 411/411/411 410/410/410 
f 412/412/412 408/408/408 409/409/409 
f 408/408/408 412/412/412 411/411/411 
f 409/409/409 413/413/413 412/412/412 
f 414/414/414 412/412/412 413/413/413 
f 413/413/413 415/415/415 414/414/414 
f 416/416/416 411/411/411 412/412/412 
f 412/412/412 414/414/414 416/416/416 
f 417/417/417 410/410/410 411/411/411 
f 411/411/411 416/416/416 417/417/417 
f 410/410/410 417/417/417 277/277/277 
f 277/277/277 403/403/403 410/410/410 
f 418/418/418 414/414/414 415/415/415 
f 415/415/415 419/419/419 418/418/418 
f 420/420/420 416/416/416 414/414/414 
f 414/414/414 418/418/418 420/420/420 
f 421/421/421 417/417/417 416/416/416 
f 416/416/416 420/420/420 421/421/421 
f 274/274/274 277/277/277 417/417/417 
f 417/417/417 421/421/421 274/274/274 
f 422/422/422 418/418/418 419/419/419 
f 419/419/419 423/423/423 422/422/422 
f 424/424/424 420/420/420 418/418/418 
f 418/418/418 422/422/422 424/424/424 
f 425/425/425 421/421/421 420/420/420 
f 420/420/420 424/424/424 425/425/425 
f 269/269/269 274/274/274 421/421/421 
f 421/421/421 425/425/425 269/269/269 
f 426/426/426 422/422/422 423/423/423 
f 423/423/423 427/427/427 426/426/426 
f 428/428/428 424/424/424 422/422/422 
f 422/422/422 426/426/426 428/428/428 
f 429/429/429 425/425/425 424/424/424 
f 424/424/424 428/428/428 429/429/429 
f 266/266/266 269/269/269 425/425/425 
f 425/425/425 429/429/429 266/266/266 
f 430/430/430 426/426/426 427/427/427 
f 427/427/427 431/431/431 430/430/430 
f 432/432/432 428/428/428 426/426/426 
f 426/426/426 430/430/430 432/432/432 
f 253/253/253 429/429/429 428/428/428 
f 428/428/428 432/432/432 253/253/253 
f 255/255/255 266/266/266 429/429/429 
f 429/429/429 253/253/253 255/255/255 
f 433/433/433 430/430/430 431/431/431 
f 431/431/431 251/251/251 433/433/433 
f 250/250/250 432/432/432 430/430/430 
f 430/430/430 433/433/433 250/250/250 
f 249/249/249 253/253/253 432/432/432 
f 432/432/432 250/250/250 249/249/249 
f 248/248/248 250/250/250 433/433/433 
f 248/248/248 433/433/433 251/251/251 
f 434/434/434 435/435/435 436/436/436 
f 436/436/436 437/437/437 434/434/434 
f 438/438/438 434/434/434 437/437/437 
f 437/437/437 436/436/436 439/439/439 
f 437/437/437 440/440/440 438/438/438 
f 441/441/441 438/438/438 440/440/440 
f 439/439/439 442/442/442 437/437/437 
f 440/440/440 437/437/437 442/442/442 
f 442/442/442 439/439/439 443/443/443 
f 440/440/440 444/444/444 441/441/441 
f 445/445/445 441/441/441 444/444/444 
f 442/442/442 446/446/446 440/440/440 
f 444/444/444 440/440/440 446/446/446 
f 443/443/443 447/447/447 442/442/442 
f 446/446/446 442/442/442 447/447/447 
f 447/447/447 443/443/443 448/448/448 
f 444/444/444 449/449/449 445/445/445 
f 450/450/450 445/445/445 449/449/449 
f 446/446/446 451/451/451 444/444/444 
f 449/449/449 444/444/444 451/451/451 
f 447/447/447 452/452/452 446/446/446 
f 451/451/451 446/446/446 452/452/452 
f 448/448/448 453/453/453 447/447/447 
f 452/452/452 447/447/447 453/453/453 
f 453/453/453 448/448/448 454/454/454 
f 449/449/449 455/455/455 450/450/450 
f 456/456/456 450/450/450 455/455/455 
f 451/451/451 457/457/457 449/449/449 
f 455/455/455 449/449/449 457/457/457 
f 452/452/452 458/458/458 451/451/451 
f 457/457/457 451/451/451 458/458/458 
f 453/453/453 459/459/459 452/452/452 
f 458/458/458 452/452/452 459/459/459 
f 454/454/454 460/460/460 453/453/453 
f 459/459/459 453/453/453 460/460/460 
f 460/460/460 454/454/454 461/461/461 
f 461/461/461 462/462/462 460/460/460 
f 462/462/462 461/461/461 463/463/463 
f 460/460/460 464/464/464 459/459/459 
f 464/464/464 460/460/460 462/462/462 
f 459/459/459 465/465/465 458/458/458 
f 465/465/465 459/459/459 464/464/464 
f 466/466/466 458/458/458 465/465/465 
f 458/458/458 466/466/466 457/457/457 
f 463/463/463 467/467/467 462/462/462 
f 467/467/467 463/463/463 468/468/468 
f 462/462/462 469/469/469 464/464/464 
f 469/469/469 462/462/462 467/467/467 
f 464/464/464 470/470/470 465/465/465 
f 470/470/470 464/464/464 469/469/469 
f 465/465/465 471/471/471 466/466/466 
f 471/471/471 465/465/465 470/470/470 
f 468/468/468 472/472/472 467/467/467 
f 472/472/472 468/468/468 473/473/473 
f 473/473/473 474/474/474 472/472/472 
f 475/475/475 467/467/467 472/472/472 
f 467/467/467 475/475/475 469/469/469 
f 476/476/476 472/472/472 474/474/474 
f 472/472/472 476/476/476 475/475/475 
f 474/474/474 477/477/477 476/476/476 
f 478/478/478 469/469/469 475/475/475 
f 469/469/469 478/478/478 470/470/470 
f 479/479/479 475/475/475 476/476/476 
f 475/475/475 479/479/479 478/478/478 
f 480/480/480 476/476/476 477/477/477 
f 476/476/476 480/480/480 479/479/479 
f 477/477/477 481/481/481 480/480/480 
f 482/482/482 470/470/470 478/478/478 
f 470/470/470 482/482/482 471/471/471 
f 483/483/483 478/478/478 479/479/479 
f 478/478/478 483/483/483 482/482/482 
f 484/484/484 479/479/479 480/480/480 
f 479/479/479 484/484/484 483/483/483 
f 485/485/485 480/480/480 481/481/481 
f 480/480/480 485/485/485 484/484/484 
f 481/481/481 486/486/486 485/485/485 
f 487/487/487 485/485/485 486/486/486 
f 486/486/486 488/488/488 487/487/487 
f 489/489/489 484/484/484 485/485/485 
f 485/485/485 487/487/487 489/489/489 
f 490/490/490 483/483/483 484/484/484 
f 484/484/484 489/489/489 490/490/490 
f 483/483/483 490/490/490 491/491/491 
f 491/491/491 482/482/482 483/483/483 
f 492/492/492 487/487/487 488/488/488 
f 488/488/488 493/493/493 492/492/492 
f 494/494/494 489/489/489 487/487/487 
f 487/487/487 492/492/492 494/494/494 
f 495/495/495 490/490/490 489/489/489 
f 489/489/489 494/494/494 495/495/495 
f 496/496/496 491/491/491 490/490/490 
f 490/490/490 495/495/495 496/496/496 
f 497/497/497 492/492/492 493/493/493 
f 493/493/493 498/498/498 497/497/497 
f 499/499/499 494/494/494 492/492/492 
f 492/492/492 497/497/497 499/499/499 
f 500/500/500 495/495/495 494/494/494 
f 494/494/494 499/499/499 500/500/500 
f 501/501/501 496/496/496 495/495/495 
f 495/495/495 500/500/500 501/501/501 
f 502/502/502 497/497/497 498/498/498 
f 498/498/498 503/503/503 502/502/502 
f 504/504/504 502/502/502 503/503/503 
f 503/503/503 505/505/505 504/504/504 
f 502/502/502 504/504/504 506/506/506 
f 497/497/497 502/502/502 507/507/507 
f 506/506/506 507/507/507 502/502/502 
f 507/507/507 499/499/499 497/497/497 
f 507/507/507 506/506/506 508/508/508 
f 499/499/499 507/507/507 509/509/509 
f 508/508/508 509/509/509 507/507/507 
f 509/509/509 500/500/500 499/499/499 
f 509/509/509 508/508/508 510/510/510 
f 500/500/500 509/509/509 511/511/511 
f 510/510/510 511/511/511 509/509/509 
f 511/511/511 501/501/501 500/500/500 
f 511/511/511 510/510/510 512/512/512 
f 512/512/512 513/513/513 511/511/511 
f 501/501/501 511/511/511 513/513/513 
f 513/513/513 512/512/512 514/514/514 
f 513/513/513 515/515/515 501/501/501 
f 496/496/496 501/501/501 515/515/515 
f 514/514/514 516/516/516 513/513/513 
f 515/515/515 513/513/513 516/516/516 
f 516/516/516 514/514/514 517/517/517 
f 515/515/515 518/518/518 496/496/496 
f 491/491/491 496/496/496 518/518/518 
f 516/516/516 519/519/519 515/515/515 
f 518/518/518 515/515/515 519/519/519 
f 517/517/517 520/520/520 516/516/516 
f 519/519/519 516/516/516 520/520/520 
f 520/520/520 517/517/517 521/521/521 
f 518/518/518 522/522/522 491/491/491 
f 482/482/482 491/491/491 522/522/522 
f 522/522/522 471/471/471 482/482/482 
f 522/522/522 518/518/518 523/523/523 
f 519/519/519 523/523/523 518/518/518 
f 471/471/471 522/522/522 524/524/524 
f 523/523/523 524/524/524 522/522/522 
f 524/524/524 466/466/466 471/471/471 
f 523/523/523 519/519/519 525/525/525 
f 520/520/520 525/525/525 519/519/519 
f 524/524/524 523/523/523 526/526/526 
f 525/525/525 526/526/526 523/523/523 
f 466/466/466 524/524/524 527/527/527 
f 526/526/526 527/527/527 524/524/524 
f 527/527/527 457/457/457 466/466/466 
f 457/457/457 527/527/527 455/455/455 
f 528/528/528 455/455/455 527/527/527 
f 527/527/527 526/526/526 528/528/528 
f 455/455/455 528/528/528 456/456/456 
f 529/529/529 456/456/456 528/528/528 
f 530/530/530 528/528/528 526/526/526 
f 528/528/528 530/530/530 529/529/529 
f 526/526/526 525/525/525 530/530/530 
f 531/531/531 529/529/529 530/530/530 
f 532/532/532 530/530/530 525/525/525 
f 530/530/530 532/532/532 531/531/531 
f 525/525/525 520/520/520 532/532/532 
f 533/533/533 531/531/531 532/532/532 
f 521/521/521 532/532/532 520/520/520 
f 532/532/532 521/521/521 533/533/533 
f 534/534/534 365/365/365 366/366/366 
f 366/366/366 535/535/535 534/534/534 
f 536/536/536 367/367/367 365/365/365 
f 365/365/365 534/534/534 536/536/536 
f 537/537/537 368/368/368 367/367/367 
f 367/367/367 536/536/536 537/537/537 
f 538/538/538 369/369/369 368/368/368 
f 368/368/368 537/537/537 538/538/538 
f 539/539/539 534/534/534 535/535/535 
f 535/535/535 540/540/540 539/539/539 
f 541/541/541 536/536/536 534/534/534 
f 534/534/534 539/539/539 541/541/541 
f 542/542/542 537/537/537 536/536/536 
f 536/536/536 541/541/541 542/542/542 
f 543/543/543 538/538/538 537/537/537 
f 537/537/537 542/542/542 543/543/543 
f 544/544/544 539/539/539 540/540/540 
f 540/540/540 545/545/545 544/544/544 
f 546/546/546 544/544/544 545/545/545 
f 545/545/545 547/547/547 546/546/546 
f 544/544/544 546/546/546 548/548/548 
f 539/539/539 544/544/544 549/549/549 
f 548/548/548 549/549/549 544/544/544 
f 549/549/549 541/541/541 539/539/539 
f 549/549/549 548/548/548 550/550/550 
f 541/541/541 549/549/549 551/551/551 
f 550/550/550 551/551/551 549/549/549 
f 551/551/551 542/542/542 541/541/541 
f 551/551/551 550/550/550 552/552/552 
f 542/542/542 551/551/551 553/553/553 
f 552/552/552 553/553/553 551/551/551 
f 553/553/553 543/543/543 542/542/542 
f 553/553/553 552/552/552 554/554/554 
f 554/554/554 555/555/555 553/553/553 
f 543/543/543 553/553/553 555/555/555 
f 555/555/555 554/554/554 556/556/556 
f 555/555/555 557/557/557 543/543/543 
f 538/538/538 543/543/543 557/557/557 
f 556/556/556 558/558/558 555/555/555 
f 557/557/557 555/555/555 558/558/558 
f 558/558/558 556/556/556 559/559/559 
f 557/557/557 560/560/560 538/538/538 
f 369/369/369 538/538/538 560/560/560 
f 558/558/558 561/561/561 557/557/557 
f 560/560/560 557/557/557 561/561/561 
f 559/559/559 562/562/562 558/558/558 
f 561/561/561 558/558/558 562/562/562 
f 562/562/562 559/559/559 563/563/563 
f 560/560/560 564/564/564 369/369/369 
f 364/364/364 369/369/369 564/564/564 
f 561/561/561 565/565/565 560/560/560 
f 564/564/564 560/560/560 565/565/565 
f 562/562/562 566/566/566 561/561/561 
f 565/565/565 561/561/561 566/566/566 
f 563/563/563 567/567/567 562/562/562 
f 566/566/566 562/562/562 567/567/567 
f 567/567/567 563/563/563 568/568/568 
f 564/564/564 569/569/569 364/364/364 
f 355/355/355 364/364/364 569/569/569 
f 569/569/569 346/346/346 355/355/355 
f 569/569/569 564/564/564 570/570/570 
f 565/565/565 570/570/570 564/564/564 
f 346/346/346 569/569/569 571/571/571 
f 570/570/570 571/571/571 569/569/569 
f 571/571/571 340/340/340 346/346/346 
f 570/570/570 565/565/565 572/572/572 
f 566/566/566 572/572/572 565/565/565 
f 571/571/571 570/570/570 573/573/573 
f 572/572/572 573/573/573 570/570/570 
f 340/340/340 571/571/571 574/574/574 
f 573/573/573 574/574/574 571/571/571 
f 574/574/574 334/334/334 340/340/340 
f 572/572/572 566/566/566 575/575/575 
f 567/567/567 575/575/575 566/566/566 
f 573/573/573 572/572/572 576/576/576 
f 575/575/575 576/576/576 572/572/572 
f 574/574/574 573/573/573 577/577/577 
f 576/576/576 577/577/577 573/573/573 
f 334/334/334 574/574/574 578/578/578 
f 577/577/577 578/578/578 574/574/574 
f 578/578/578 332/332/332 334/334/334 
f 575/575/575 567/567/567 579/579/579 
f 568/568/568 579/579/579 567/567/567 
f 579/579/579 568/568/568 580/580/580 
f 579/579/579 581/581/581 575/575/575 
f 576/576/576 575/575/575 581/581/581 
f 580/580/580 582/582/582 579/579/579 
f 581/581/581 579/579/579 582/582/582 
f 582/582/582 580/580/580 583/583/583 
f 581/581/581 584/584/584 576/576/576 
f 577/577/577 576/576/576 584/584/584 
f 582/582/582 585/585/585 581/581/581 
f 584/584/584 581/581/581 585/585/585 
f 583/583/583 586/586/586 582/582/582 
f 585/585/585 582/582/582 586/586/586 
f 586/586/586 583/583/583 587/587/587 
f 584/584/584 588/588/588 577/577/577 
f 578/578/578 577/577/577 588/588/588 
f 585/585/585 589/589/589 584/584/584 
f 588/588/588 584/584/584 589/589/589 
f 586/586/586 590/590/590 585/585/585 
f 589/589/589 585/585/585 590/590/590 
f 587/587/587 591/591/591 586/586/586 
f 590/590/590 586/586/586 591/591/591 
f 591/591/591 587/587/587 592/592/592 
f 588/588/588 593/593/593 578/578/578 
f 332/332/332 578/578/578 593/593/593 
f 593/593/593 326/326/326 332/332/332 
f 593/593/593 588/588/588 594/594/594 
f 589/589/589 594/594/594 588/588/588 
f 326/326/326 593/593/593 595/595/595 
f 594/594/594 595/595/595 593/593/593 
f 595/595/595 324/324/324 326/326/326 
f 594/594/594 589/589/589 596/596/596 
f 590/590/590 596/596/596 589/589/589 
f 595/595/595 594/594/594 597/597/597 
f 596/596/596 597/597/597 594/594/594 
f 324/324/324 595/595/595 598/598/598 
f 597/597/597 598/598/598 595/595/595 
f 598/598/598 318/318/318 324/324/324 
f 596/596/596 590/590/590 599/599/599 
f 591/591/591 599/599/599 590/590/590 
f 597/597/597 596/596/596 600/600/600 
f 599/599/599 600/600/600 596/596/596 
f 598/598/598 597/597/597 601/601/601 
f 600/600/600 601/601/601 597/597/597 
f 318/318/318 598/598/598 602/602/602 
f 601/601/601 602/602/602 598/598/598 
f 602/602/602 316/316/316 318/318/318 
f 599/599/599 591/591/591 603/603/603 
f 592/592/592 603/603/603 591/591/591 
f 603/603/603 592/592/592 604/604/604 
f 603/603/603 605/605/605 599/599/599 
f 600/600/600 599/599/599 605/605/605 
f 604/604/604 606/606/606 603/603/603 
f 605/605/605 603/603/603 606/606/606 
f 606/606/606 604/604/604 607/607/607 
f 605/605/605 608/608/608 600/600/600 
f 601/601/601 600/600/600 608/608/608 
f 606/606/606 609/609/609 605/605/605 
f 608/608/608 605/605/605 609/609/609 
f 607/607/607 610/610/610 606/606/606 
f 609/609/609 606/606/606 610/610/610 
f 610/610/610 607/607/607 611/611/611 
f 608/608/608 612/612/612 601/601/601 
f 602/602/602 601/601/601 612/612/612 
f 609/609/609 613/613/613 608/608/608 
f 612/612/612 608/608/608 613/613/613 
f 610/610/610 614/614/614 609/609/609 
f 613/613/613 609/609/609 614/614/614 
f 611/611/611 615/615/615 610/610/610 
f 614/614/614 610/610/610 615/615/615 
f 615/615/615 611/611/611 374/374/374 
f 374/374/374 373/373/373 615/615/615 
f 616/616/616 615/615/615 373/373/373 
f 615/615/615 616/616/616 614/614/614 
f 373/373/373 377/377/377 616/616/616 
f 614/614/614 617/617/617 613/613/613 
f 617/617/617 614/614/614 616/616/616 
f 618/618/618 616/616/616 377/377/377 
f 616/616/616 618/618/618 617/617/617 
f 377/377/377 382/382/382 618/618/618 
f 619/619/619 613/613/613 617/617/617 
f 613/613/613 619/619/619 612/612/612 
f 620/620/620 617/617/617 618/618/618 
f 617/617/617 620/620/620 619/619/619 
f 621/621/621 618/618/618 382/382/382 
f 618/618/618 621/621/621 620/620/620 
f 382/382/382 622/622/622 621/621/621 
f 622/622/622 382/382/382 383/383/383 
f 623/623/623 612/612/612 619/619/619 
f 612/612/612 623/623/623 602/602/602 
f 316/316/316 602/602/602 623/623/623 
f 623/623/623 310/310/310 316/316/316 
f 619/619/619 624/624/624 623/623/623 
f 310/310/310 623/623/623 624/624/624 
f 624/624/624 619/619/619 620/620/620 
f 624/624/624 308/308/308 310/310/310 
f 620/620/620 625/625/625 624/624/624 
f 308/308/308 624/624/624 625/625/625 
f 625/625/625 620/620/620 621/621/621 
f 625/625/625 302/302/302 308/308/308 
f 621/621/621 626/626/626 625/625/625 
f 302/302/302 625/625/625 626/626/626 
f 626/626/626 621/621/621 622/622/622 
f 626/626/626 300/300/300 302/302/302 
f 300/300/300 626/626/626 627/627/627 
f 622/622/622 627/627/627 626/626/626 
f 627/627/627 294/294/294 300/300/300 
f 627/627/627 622/622/622 628/628/628 
f 383/383/383 628/628/628 622/622/622 
f 628/628/628 383/383/383 387/387/387 
f 294/294/294 627/627/627 629/629/629 
f 628/628/628 629/629/629 627/627/627 
f 629/629/629 292/292/292 294/294/294 
f 387/387/387 630/630/630 628/628/628 
f 629/629/629 628/628/628 630/630/630 
f 630/630/630 387/387/387 391/391/391 
f 292/292/292 629/629/629 631/631/631 
f 630/630/630 631/631/631 629/629/629 
f 631/631/631 286/286/286 292/292/292 
f 391/391/391 632/632/632 630/630/630 
f 631/631/631 630/630/630 632/632/632 
f 632/632/632 391/391/391 395/395/395 
f 286/286/286 631/631/631 633/633/633 
f 632/632/632 633/633/633 631/631/631 
f 633/633/633 284/284/284 286/286/286 
f 395/395/395 634/634/634 632/632/632 
f 633/633/633 632/632/632 634/634/634 
f 634/634/634 395/395/395 399/399/399 
f 284/284/284 633/633/633 635/635/635 
f 634/634/634 635/635/635 633/633/633 
f 635/635/635 278/278/278 284/284/284 
f 278/278/278 635/635/635 276/276/276 
f 635/635/635 634/634/634 636/636/636 
f 399/399/399 636/636/636 634/634/634 
f 636/636/636 276/276/276 635/635/635 
f 636/636/636 399/399/399 403/403/403 
f 276/276/276 636/636/636 277/277/277 
f 403/403/403 277/277/277 636/636/636 

